<?xml version="1.0" encoding="utf-8"?>
<!-- Generator: Adobe Illustrator 23.0.1, SVG Export Plug-In . SVG Version: 6.00 Build 0)  -->
<svg version="1.1" xmlns="http://www.w3.org/2000/svg" xmlns:xlink="http://www.w3.org/1999/xlink" x="0px" y="0px"
	 viewBox="0 0 379.5 587" style="enable-background:new 0 0 379.5 587;" xml:space="preserve">
<style type="text/css">
	.st0{fill:#7F4B1F;stroke:#653312;stroke-width:3;stroke-miterlimit:10;}
	.st1{fill:none;stroke:#653312;stroke-width:3;stroke-miterlimit:10;}
	.st2{fill:none;stroke:#653312;stroke-width:3;stroke-linecap:round;stroke-miterlimit:10;}
	.st3{fill:#086C37;stroke:#26441E;stroke-miterlimit:10;}
	.st4{fill:none;stroke:#26441E;stroke-miterlimit:10;}
	.st5{fill:#FFFFFF;}
</style>
<g id="Layer_1">
</g>
<g id="stump">
	<path class="st0" d="M165.2,556.9c-0.5,13.1,8.3,24.9,21.1,27.6c2.7,0.6,5.8,0.9,9.2,1c4,0.1,7.6-0.3,10.7-1
		c12.6-2.9,21.2-14.7,20.6-27.7l-3.9-87.5c-0.6-14.5-12.5-25.9-27-26h0c-14.8-0.2-27,11.5-27.5,26.2L165.2,556.9z"/>
	<path class="st1" d="M189.6,541.8c0,0,4.9,36.8-0.5,43.4"/>
	<path class="st1" d="M220,575.8c0,0-13.3-49.8-7.9-62"/>
	<path class="st1" d="M174.7,531.7c0,0,8.4,36.3,0.3,46.2"/>
	<path class="st2" d="M210,582.3c0,0-8.3-31.1-8.2-35.1"/>
</g>
<g id="tree">
	<path id="_x3C_path_x3E_" class="st3" d="M333.6,537.1c-4.5,4.7-8.3-20.5-65-13.6c-24.3,3.2-38.6-1.5-38.6-1.5
		s-15.5,27.4-30.3,28.7c-15.2,1.3-28.9-21.6-28.9-21.6s-21.7,16.2-37.1,18.6c-8.8,1.4-20.7-25.8-31.3-27.2
		c-24.8-3.3-71.9,9.4-72.3,3.9c-0.4-5.9,24.9-29.3,40-35.2c-9.5-2-6-11.1-6-11.1s-49-4.6-63.3-43.4c10.2,2.6,50-8.2,50-8.2
		s-28.6-9.2-27.6-30.1c10.7,0.5,15.8-2,15.8-2s-17.4-7.1-11.2-23.5c13.3,5.1,41.9,8.7,41.9,8.7s-35.4-30.1-31.5-52.4
		c10,4.3,19.1,4.3,19.1,4.3s-11.2-11.9-5.4-18.7c5.8-6.8,36.3-6.6,41.4-18c0,0-32.7-11.2-31.7-33.9c12.4,5.8,24-1.2,24-1.2
		s-15.1-3.2-14-15.5c0,0,25.2,1,47.1-22.5c-11.9-0.7-15.3-13.3-15.3-13.3s25.7-4.9,29.4-15.1c-12.4-2.9-24.5-16-24.7-28.6
		c9.2-0.2,43.8-7.8,44.5-32.5c-20.5,2.2-25.9-17.6-25.9-17.6s15.9,0.1,24-8.9c9-10,18.2-19.6,1.2-31.2c-9.4-6.4,11.8-5.2,11.3-7.1
		c-2.5-8.5-13.6-7.1-4.6-10.7c22.6-9,14.1-32.7,18.6-43.7c2-4.9,4.6-8.1,6.9-10.1c3.6-3.1,9.1-3.1,12.5,0.2c1.7,1.7,3.5,4.1,4.8,7.8
		c3.7,9.9-2.2,28.9,20.1,46.9c-1.4,10.7-9,11.6-9,11.6s9.2,12.3,18.6,15.3c9.4,3.1-10.9,15-10.9,15s13.8,4.8,20.1,3.1
		c6.3-1.7-12.8,20.1-12.8,20.1s7,4.8,5.3,11.7c-1.7,7,29.4,11.2,29.4,11.2s5.1,12.9-19.9,26c0,0,3.5,13.7,38.1,13.3
		c0.9,17.2-12.9,27.4-12.9,27.4s8.9,11.4,25.9,18c17,6.6-10,12.4-10,12.4s28.8-1.2,29.6,2c0.9,3.2-1.2,16.9-17.4,26
		c0,0,16.2,2,0.2,19.9c12.4,4.3,33.7,6.3,33.7,6.3s0.5,14-10,22.8c6.4-1.4,6,3.6,5.4,6.1c-0.2,0.7-0.5,1.4-1.1,1.9
		c-2.2,2.2-8.3,9.1-1.2,13.5c8.5,5.3-4.1,20.4-4.1,20.4s-3.1,11.9,31,17.7s-25.7,36.8-25.7,36.8s4.5,5.6,40.8,8.2
		c2.9,0.2,5.8,0.9,8.4,2.3c8.8,4.7,17.9,18.3-49.7,51.4C323.3,478.3,345.6,524.6,333.6,537.1z"/>
	<g id="treeLines">
		<path class="st4" d="M133,193.2c0,0,10.4,3.6,17.8,1.5"/>
		<path class="st4" d="M152.9,132.1c0,0,6.9-0.6,10.5-3.6"/>
		<path class="st4" d="M118.9,221.6c0,0,5.7,0.3,11.9-3"/>
		<path class="st4" d="M85.7,259.6c0,0,4.2,1.3,12.1-0.6"/>
		<path class="st4" d="M93.4,294.6c0,0,6.2,2.3,16.9,3.6"/>
		<path class="st4" d="M57.5,331.4c0,0,2.6,3.1,11.2,6"/>
		<path class="st4" d="M69.9,379.6c0,0,8.9,7.5,16.6,8.2"/>
		<path class="st4" d="M39.3,394.4c0,0,4.7,2.3,9.3,2.3"/>
		<path class="st4" d="M51,426.6c0,0,8,2.8,19.7,3.2"/>
		<path class="st4" d="M64.3,478.1c0,0,13.3,1.2,25.4-3.4"/>
		<path class="st4" d="M70.2,489.2c0,0,3.6-1.4,9.4-2.1"/>
		<path class="st4" d="M171,529.2c0,0-20.4-27.6-10-42.4"/>
		<path class="st4" d="M230.1,522.1c0,0,6.3-11.6,10.6-16.1"/>
		<path class="st4" d="M318.5,362c0,0-3.2,3.6-5.4,3.9"/>
		<path class="st4" d="M319.5,320.2c0,0-4.1,3.6-14.6,5.1"/>
		<path class="st4" d="M295.7,271.2c0,0-3.1-0.4-8.4,0.8"/>
		<line class="st4" x1="283.4" y1="243.1" x2="280" y2="243.5"/>
		<path class="st4" d="M267.6,212.6c0,0-6.7,5.1-14.7,6.5"/>
		<path class="st4" d="M242.4,171.9c0,0-1.9,1-5.5,2.6"/>
		<path class="st4" d="M295.9,291.1c0,0-2.1-0.5-4-2.3"/>
		<path class="st4" d="M227.6,122.9c0,0-2.3-1.7-7.4-1.7"/>
		<path class="st4" d="M220.3,99.8c0,0-3.3-0.9-4.8-2.3"/>
		<path class="st4" d="M212.6,69.5c0,0-2.4,0.4-4.1-0.9"/>
		<path class="st4" d="M323.3,478.3c0,0-3.2-7.1-5.5-9.1"/>
		<path class="st4" d="M323.8,416.4c0,0-3.3-2.9-2.3-6.2"/>
	</g>
</g>
<g id="snow">
	<path class="st5" d="M129,110.5c-3.5,1.7-3.2,7,0.5,8.1c0.4,0.1,0.9,0.2,1.3,0.1c3.3,1.4,7.8-2.8,10.2-3.7
		c3.5-1.4,10.5-3.7,12.6-4.5c1.1-0.4,3.3-3.6,3.8-4.4c2.7-3.8,2.8-6,1.4-10.1c-0.3-1-3.3,2.2-4.2,2.6c-3,1.2-5.7-1.3-14.6,8.4
		c-0.5,0.5-1.2,0.8-1.9,0.8C135.8,107.6,132.1,109,129,110.5z"/>
	<path class="st5" d="M110.8,160.7c-4.6,1.9-4.2,8.1,0.7,9.3c0.2,0,0.4,0.1,0.6,0.1c0.8,0.1,1.7,0.2,2.5,0.5
		c4.5,1.2,13.6-3.4,15.8-5.3c0.6-0.5,3.4-1.5,4.2-1.7c3.3-0.8,4-2.6,6.4-5.1c0.7-0.8,1.5-1.4,2.4-2c4-2.7,10.7-11,7.2-12.9
		c-1.3-0.7-5.9,2.7-7.4,3.1c-4,1.2-7-0.9-17.9,9.8c-0.6,0.6-1.5,1-2.5,0.9C119.6,157.3,114.8,159,110.8,160.7z"/>
	<path class="st5" d="M374.5,425.7c4.9,0.8,6.1,6.9,1.6,9.2c-0.2,0.1-0.3,0.2-0.5,0.2c-0.8,0.3-1.5,0.6-2.3,1
		c-4,2.2-10.7-0.6-13.3-1.9c-0.7-0.4-1.6-0.4-2.4-0.2c-2.8,0.9-11.2-0.5-14.1-2.4c-0.9-0.6-1.8-1-2.8-1.4
		c-4.5-1.7-11.7-8.8-8.9-11.6c1-1,6.4,1.2,7.9,1.3c4.2,0.2,8.5-2.6,19.7,2c0.8,0.3,1.7,0.6,2.6,0.3
		C365.1,421.4,370.2,425,374.5,425.7z"/>
	<path class="st5" d="M76,245.6c-0.7,0-1.4-0.1-2.1-0.3c-3.7-1.2-3.8-3,0.4-3.8c4-0.7,4.3-1.7,7.4-1.6c1,0,1.9-0.1,2.5-0.4
		c11.1-4.7,18.6-9,22.7-9.6c1.5-0.2,3-0.3,4,0.2c8.5,3.7-9.5,11.7-9.5,11.7c-1.5,1-8.4,3.2-11.8,3.1c-0.7,0-1.4,0.1-1.9,0.2
		c-0.3,0.1-0.5,0.1-0.8,0.1L76,245.6z"/>
	<path class="st5" d="M52.2,316.3c-0.6,0-1.1-0.1-1.7-0.3c0,0-2.3-1.1,0.4-4.2c2-2.3,3.5-4.4,5.9-4.3c0.8,0,1.5-0.1,2-0.5
		c8.8-5.2,17.4-3,20.6-3.6c1.2-0.2,2.4-0.3,3.2,0.2c6.8,4.2-10.2,8.5-10.2,8.5c-1.2,1.1-6.7,3.6-9.5,3.5c-0.5,0-1.1,0.1-1.5,0.2
		c-0.2,0.1-0.4,0.1-0.6,0.2L52.2,316.3z"/>
	<path class="st5" d="M358.2,385.4c0.6,0,1.1-0.1,1.7-0.3c0,0,2.3-1.1-0.4-4.2c-2-2.3-2.8-5.1-5.5-6.5c-0.7-0.4-1.5-0.1-2-0.5
		c-8.8-5.2-22-2.5-25.2-3.1c-1.2-0.2-2.4-0.3-3.2,0.2c-6.8,4.2,14.4,10.1,14.4,10.1c1.2,1.1,6.7,3.6,9.5,3.5c0.5,0,1.1,0.1,1.5,0.2
		c0.2,0.1,0.4,0.1,0.6,0.2L358.2,385.4z"/>
	<path class="st5" d="M312.4,244.8c0.3-0.1,0.7-0.2,1-0.4c0,0,1.2-0.9-0.8-2.1c-1.5-0.9-2.6-1.7-4.1-1.3c-0.5,0.1-0.9,0.2-1.3,0.1
		c-5.9-1.3-6.8,0.1-8.8,0.3c-0.7,0.1-1.5,0.2-1.9,0.6c-3.5,3.2,3.2,3.8,3.2,3.8c0.9,0.4,4.5,0.8,6.1,0.3c0.3-0.1,0.6-0.1,0.9-0.1
		c0.1,0,0.3,0,0.4,0L312.4,244.8z"/>
	<path class="st5" d="M2.2,435.6c-0.6-0.1-1.1-0.3-1.6-0.7c0,0-2-1.6,1.2-4.1c2.4-1.9,4.3-3.6,6.7-3c0.7,0.2,1.5,0.2,2.1,0
		c9.7-3.3,17.7,0.7,21,0.8c1.2,0,2.4,0.2,3.1,0.9c5.8,5.5-11.8,6.2-11.8,6.2c-1.4,0.8-7.3,2.1-10,1.5c-0.5-0.1-1.1-0.2-1.5-0.1
		c-0.2,0-0.4,0.1-0.7,0L2.2,435.6z"/>
	<path class="st5" d="M333.8,525.7c0.4,0.5,0.9,1,1.5,1.3c0,0,2.8,1.2,4.4-3.8c1.2-3.7,1.5-5.1,0.7-9c-0.2-0.9-0.9-1.5-0.9-2.2
		c-0.3-12.4-8.6-18.5-10.1-22c-0.6-1.3-1.3-2.5-2.4-2.8c-9.2-2.8-2.4,16.4-2.4,16.4c-0.4,2,0.6,9.1,2.6,11.6c0.4,0.5,0.7,1,0.8,1.6
		c0.1,0.3,0.1,0.5,0.3,0.7L333.8,525.7z"/>
	<path class="st5" d="M27.7,371.8c-0.2-0.2-0.4-0.4-0.5-0.7c0,0-0.3-1.3,1.9-2.1c1.7-0.6,3.1-1.3,4-0.5c0.3,0.2,0.6,0.4,0.9,0.4
		c5.4-0.1,21.6,8.2,23,8.8c0.5,0.2,1,0.5,1.1,1c0.6,4.2-21.4-3.2-21.4-3.2c-0.9,0.2-3.9-0.1-4.9-1c-0.2-0.2-0.4-0.3-0.6-0.3
		c-0.1,0-0.2,0-0.3-0.1L27.7,371.8z"/>
	<path class="st5" d="M220.4,58.3c0.2,0.1,0.4,0.1,0.6,0c0,0,1-0.3,0.8-2.3c-0.1-1.5-0.1-2.8-0.9-3.1c-0.2-0.1-0.4-0.3-0.5-0.5
		c-1.6-3.9-12.3-12-13.2-12.7c-0.3-0.3-0.7-0.5-1-0.3c-3,1.3,8.9,14,8.9,14c0.1,0.7,1.3,2.8,2.2,3.1c0.2,0.1,0.3,0.2,0.4,0.3
		c0,0.1,0.1,0.1,0.2,0.2L220.4,58.3z"/>
	<path class="st5" d="M155.3,60c-0.3,0-0.5,0-0.8-0.2c0,0-1.1-0.7,0-2.8c0.8-1.6,1.4-3.1,2.5-3.1c0.4,0,0.7-0.1,0.9-0.4
		c3.8-3.8,7.9-2.5,9.3-3c0.5-0.2,1.1-0.3,1.5,0c3.3,2.6-4.3,6-4.3,6c-0.5,0.8-2.9,2.6-4.2,2.6c-0.3,0-0.5,0.1-0.7,0.2
		c-0.1,0.1-0.2,0.1-0.3,0.1L155.3,60z"/>
	<path class="st5" d="M231.2,89.5c1.7,0.5,3.5-0.5,4-2.2c0.6-1.8-0.9-3-3.4-4.7c-2.3-1.6-0.5-2.5-3.4-3.8c-0.8-0.4-1.6-0.7-2.1-1.4
		c-0.8-1.2-8.5-4.3-10.1-3.4c-2.5,1.4,1.8,3.5,5,6.2c3,2.5,6,9.5,8.7,9.3C230.3,89.4,230.7,89.4,231.2,89.5
		C231.1,89.5,231.1,89.5,231.2,89.5z"/>
	<path class="st5" d="M175.9,535.9c-2,1,3.5,6.4,5.4,8.9c1.9,2.7,4.4,5.4,8.7,5.3c4.1-0.1,5.6,2.1,9.7,1c1.1-0.3,4.7-1.1,6.1-0.7
		c2.2,0.7,10.9-8.2,11-10.6c0.2-3.9-8.7,3.8-14.9,3.6c-5.8-0.3-22.9-11.1-24.8-8.5C176.8,535.3,176.5,535.7,175.9,535.9
		C176,535.9,176,535.9,175.9,535.9z"/>
	<path class="st5" d="M260.5,148.6c1.8-0.3,2.9-1.9,2.7-3.7c-0.2-1.9-2.1-2.3-5-2.9c-2.8-0.6-1.5-2.1-4.7-2.1
		c-0.9,0-1.7,0.1-2.5-0.4c-1.2-0.8-9.5-0.5-10.6,1c-1.7,2.3,3.4,1.6,7.1,3.6c7,3.7,8.2,7.4,10.5,6.2
		C258.4,150,260,148.7,260.5,148.6C260.4,148.6,260.5,148.6,260.5,148.6z"/>
	<path class="st5" d="M324.9,301.8c2.5-0.2,4.7-1.7,5.1-3.4c0.4-1.8-2-2.3-5.8-3c-3.6-0.6-1.3-2.1-5.6-2.2c-1.2,0-2.4,0-3.2-0.5
		c-1.4-0.8-12.9-0.8-14.9,0.6c-3.2,2.1,4.1,1.7,8.4,3.7c8.3,3.8,8.5,7.4,12.2,6.3c0.6-0.2,3.3-1.4,3.8-1.5
		C324.9,301.8,324.9,301.8,324.9,301.8z"/>
	<path class="st5" d="M38.1,523.1c-3.1,1.8-7,2-8.8,0.4c-2-1.7,0.4-4.2,4.4-8.1c3.7-3.7-0.2-3.3,4.8-7.1c1.4-1,2.8-2,3.4-3.2
		c1-2,14.5-11.6,18-11.8c5.5-0.3-3.4,5.2-6.8,11c-6.6,11.1-3.9,15.2-9.1,17c-0.8,0.3-5,1.1-5.7,1.6C38.2,523,38.2,523.1,38.1,523.1z
		"/>
	<path class="st5" d="M279.7,189.5c2.1-1.4,1.7-4.6,0.2-6.8c-1.5-2.4-4.2-2-8.5-1.1c-4,0.8-3.3-1.9-7.5-0.1
		c-1.1,0.5-2.2,1.1-3.5,0.9c-2.1-0.3-11.7-4.3-12.2-1.8c-0.8,4,7.2,12.3,13.4,12.9c11.7,1,12.6,2.3,14.9-0.7
		C276.9,192.3,279.1,189.9,279.7,189.5C279.6,189.6,279.7,189.5,279.7,189.5z"/>
</g>
</svg>
