<?xml version="1.0" encoding="utf-8"?>
<!-- Generator: Adobe Illustrator 23.0.1, SVG Export Plug-In . SVG Version: 6.00 Build 0)  -->
<svg version="1.1" id="ornament_swiggle" xmlns="http://www.w3.org/2000/svg" xmlns:xlink="http://www.w3.org/1999/xlink" x="0px"
	 y="0px" viewBox="0 0 329.9 458.4" style="enable-background:new 0 0 329.9 458.4;" xml:space="preserve">
<style type="text/css">
	.st0{fill:#009EFF;}
	.st1{fill:#FFFFFF;}
	.st2{fill:#CCC200;}
</style>
<g>
	<g>
		<path d="M329.8,287.3c0-0.9-0.1-1.6-0.1-2.4c0-0.5,0-1-0.1-1.5c-0.1-1.2-0.2-2.4-0.3-3.6c-0.1-1.2-0.2-2.3-0.4-3.5
			c0-0.1,0-0.2-0.1-0.3c-0.2-2.5-0.5-5-0.9-7.5s-0.8-5-1.3-7.5c-1.3-6.3-2.9-12.5-4.9-18.6c-0.5-1.5-1-3.1-1.6-4.6
			c-1.6-4.6-3.5-9.1-5.5-13.5c-1.1-2.4-2.2-4.7-3.5-7c-1.8-3.3-3.6-6.6-5.6-9.8c-0.7-1-1.3-2.1-1.9-3c-0.6-1-1.2-1.9-1.9-2.9
			c-0.4-0.7-0.9-1.3-1.3-1.9c-0.8-1.3-1.8-2.5-2.7-3.6V196c-1.7-2.3-3.5-4.6-5.3-6.8s-3.7-4.4-5.6-6.5c-0.7-0.8-1.5-1.6-2.2-2.4
			l-0.4-0.4l-3.1-3.2c-1-1-2.1-2-3.1-3c-0.7-0.6-1.3-1.2-2-1.8c-5.1-4.9-10.8-9.5-16.3-13.2c-3.6-2.5-7.2-4.9-11.8-7.5l-5.8-3.3
			c-3.6-1.9-7.3-3.8-10.5-5c-3.8-1.8-7.7-3.3-11.7-4.7h-0.1l-14.5-47.8c-1.5-4.8-3.9-9.2-7-12.9c6.3-8.2,10.1-18.7,10.1-30.1
			c0-26-19.5-47.1-43.5-47.1s-43.5,21.1-43.5,47.1c0,11.4,3.8,21.9,10.1,30.1c-3.1,3.7-5.5,8.1-7,12.9L110,138.2
			c-56,19.7-97.7,69-107.4,127.2c-1.7,8.2-2.6,17.5-2.6,28c0,1.8,0,3.5,0.1,5.3s0.2,3.5,0.3,5c0,0.6,0,1.1,0.1,1.8
			c0.1,1.1,0.1,2.2,0.2,3.3c0.1,0.4,0.1,0.9,0.1,1.4c0.1,0.5,0.1,1,0.2,1.5c0.1,1.2,0.2,2.3,0.4,3.4c0,0.1,0,0.2,0.1,0.2
			c0.3,1.6,0.5,2.8,0.5,2.9c0.7,5.2,1.7,10.2,3,15.3v0.5c0.5,2.1,1.1,4.1,1.6,6.2l0.2,0.1c0.6,2.1,1.2,4.1,1.8,5.5
			c1.6,4.8,3.4,9.5,5.4,14c0.2,0.7,0.5,1.3,0.8,2c0.5,1.1,1,2.2,1.6,3.3c0.5,1.1,1,2.1,1.6,3.1c0.7,1.6,1.6,3.2,2.5,4.8
			c1.5,2.7,3,5.2,4.5,7.8c1.8,2.8,3.7,5.6,5.6,8.4c1.2,1.6,2.4,3.2,3.6,4.8c0.3,0.4,0.6,0.8,0.9,1.2c1.5,2,3.1,3.9,4.8,5.9l0.1,0.1
			c1.6,1.9,3.4,3.8,5.1,5.7c0,0.1,0,0.1,0.1,0.1c2.2,2.3,4.4,4.5,6.7,6.6c21.6,20.5,48.3,34.6,77.6,41.2l2.4,0.5
			c5,1,10.1,1.9,15.3,2.3c5.8,0.7,11.7,1,17.7,1c5.8,0,11.5-0.2,17-0.9c5.3-0.5,10.6-1.2,15.7-2.4l2.7-0.4c4.2-1,8-1.9,11.8-3
			c2.4-0.7,4.7-1.4,4.7-1.6c3.8-1.2,7.1-2.4,10.7-3.9l3.3-1.4c3.4-1.5,6.8-3.2,9-4.4c2.7-1.2,5.3-2.7,6.7-3.7
			c4.2-2.2,8-4.6,12.1-7.4c4.1-2.9,7.9-5.8,11-8.5c3.6-3,7.3-6.1,10.4-9.3c11.1-10.5,20.6-22.8,28.2-36.3c2-3.6,3.8-6.8,3.9-7.9
			c1.1-1.6,1.8-3.1,3.2-6c1.2-2.8,2.3-5.5,3.3-8.4l1.2-2.8l1-3.4c1.3-3.8,2.5-7.5,3.5-11.5c1.1-4.2,2.1-8.3,2.5-11.4l0.1-0.3
			c0.1-0.4,0.1-0.7,0.1-1c0.1-0.3,0.1-0.6,0.2-0.8c0.1-0.2,0.1-0.4,0.1-0.6c0.7-3.3,1.2-6.6,1.5-10.1c0.1-0.1,0.1-0.3,0.1-0.4
			c0.1-1,0.2-2.1,0.4-3.1c0.2-1.8,0.3-3.6,0.4-5.5c0.1-0.7,0.1-1.3,0.1-2c0.1-2.2,0.2-4.4,0.2-6.7
			C329.9,291.4,329.8,289.4,329.8,287.3z M164.9,30c7.3,0,13.6,7.9,13.6,17.1c0,9.3-6.2,17.1-13.6,17.1c-7.3,0-13.6-7.8-13.6-17.1
			C151.4,37.8,157.6,30,164.9,30z M153.3,98.8c0.8-2.7,3.3-4.5,6.1-4.5h0.2c0-0.1-0.1-0.2-0.1-0.4c1.8,0.2,3.6,0.4,5.5,0.4h5.6
			c2.8,0,5.3,1.8,6.1,4.5l9.4,31.1c-3.8-0.5-7.3-0.7-10.3-0.7c-4.4-0.7-8.7-1-13.1-1c-6.2,0-12.4,0.6-18.8,1.6L153.3,98.8z
			 M126.5,164c3.1-1,6.4-1.7,9.3-2.4c10-2.1,19.5-3.1,29.1-3.1h1.1c1.8,0,3.8,0,7.1,0.4c7,0.2,14.4,1.2,22.2,3
			c2.1,0.5,4.2,1,6.4,1.8l4.9,1.4c4.2,1.3,8.2,2.7,12.8,4.9c3.1,1.3,6.1,2.8,9,4.3l3.8,2.1c3.6,2.1,6.9,4.3,10.5,6.8
			c0.4,0.2,0.7,0.5,1,0.7l-31.5,9.5L38.7,246C53.3,207.1,85.7,176.1,126.5,164z M41.9,325.9l-8.8-4.2H33c-1-4.4-1.7-8.9-2.1-13.4
			c-0.1-0.4-0.1-0.8-0.2-1.2c-0.1-0.5-0.1-1-0.2-1.6c0-0.5-0.1-1-0.1-1.5c-0.2-2.1-0.3-4.1-0.3-6.2c-0.1-1.4-0.1-3-0.1-4.4
			c0-2.1,0.1-4.2,0.1-6.1c0.1-1.5,0.1-2.9,0.2-4.3c0.1-1.1,0.2-2.2,0.3-3.2h0.1l200.1-60.7l38-11.5c1.8,2.2,3.6,4.5,5.3,6.8
			c1.5,2.1,2.9,4.1,4.2,6.2c1,1.4,1.8,2.8,2.7,4.3c0.4,0.6,0.8,1.3,1.1,1.8c0.4,0.5,0.7,1.2,1,1.7l-0.1,0.1l-7.7,15.5l-18.5-8.9
			c-3.6-1.7-7.8-1.9-11.6-0.5c-2.1,0.7-3.9,1.9-5.4,3.3c-1.3,1.3-2.4,2.8-3.1,4.5l-8.1,17.6l-17.3-8.7c-3.6-1.8-7.8-2.1-11.6-0.7
			c-3.8,1.3-6.9,4.1-8.7,7.7l-8.8,18.3l-18.3-8.8c-7.4-3.6-16.3-0.5-19.9,6.8l-9.4,18.9l-18.5-8.9c-3.6-1.7-7.8-1.9-11.6-0.5
			c-3.8,1.3-6.9,4.2-8.5,7.8l-8.1,17.5l-17.3-8.6c-3.6-1.8-7.8-2.1-11.6-0.7c-3.8,1.3-6.9,4.1-8.7,7.7L41.9,325.9z M290.9,341.6
			c-1,2.7-1.9,5.3-3.3,8.2l-1.8,3.3c-1,2.5-2.3,4.7-3.8,7.3c-6.2,11-13.9,21-23,29.7c-2.6,2.6-5.4,5-8.6,7.6c-2.9,2.5-5.9,4.8-9,6.9
			c-3,2.1-5.9,3.9-10.4,6.4c-1.2,0.8-2.4,1.5-4.5,2.5c-2.4,1.3-5,2.5-10.3,4.8c-2.8,1.2-5.5,2.1-8.5,3l-4.1,1.5
			c-3.3,1-6.4,1.7-9.2,2.5l-3.4,0.4c-3.8,0.9-7.8,1.4-12.5,1.9c-4.3,0.5-8.3,0.8-12.5,0.8c0,0,0,0-0.1,0c-5,0.1-10.1-0.2-15.9-0.8
			c-4.2-0.4-8.4-1.2-12.1-1.8l-3.4-0.9c-17.6-4.1-34-11.6-48.3-21.9l150.1-45.5l54.9-16.6L290.9,341.6z M299.4,304.3
			c-0.1,0.9-0.1,1.9-0.2,2.8h-0.1l-51.4,15.6L61,379.3c-0.7-0.9-1.5-1.8-2.1-2.7c-1.4-1.7-2.7-3.4-4-5.2c-0.2-0.2-0.3-0.5-0.5-0.7
			c-2.2-3.1-4.3-6.4-6.2-9.7c0.1,0,0.1,0,0.1,0H49c5.6,0,11-3.1,13.5-8.5l8.7-18.1l17.5,8.7c3.6,1.8,7.8,2.1,11.6,0.7
			c3.9-1.4,7-4.2,8.7-7.9l8.2-17.7l18.1,8.7c7.3,3.6,16.2,0.5,19.9-6.8l9.4-18.9L183,310c3.6,1.8,7.8,1.9,11.5,0.7
			c3.7-1.3,6.8-4.1,8.5-7.7l8.7-18.1l17.5,8.7c3.6,1.8,7.9,2.1,11.6,0.7c3.9-1.3,7-4.2,8.7-7.9l0.9-1.9l7.3-15.8l18.1,8.7
			c7.3,3.6,16.2,0.5,19.9-6.8l1.6-3.3c0.9,4.1,1.5,8.1,1.8,12.3c0.1,0.1,0.1,0.2,0.1,0.2c0.1,1,0.2,2,0.3,3
			c0.3,3.5,0.4,7.1,0.4,10.7C299.9,297.3,299.8,300.9,299.4,304.3z"/>
	</g>
</g>
<path id="inside" class="st0" d="M236.7,357.4L86.6,403c14.4,10.4,30.8,17.8,48.3,21.9l3.4,0.9c3.7,0.6,7.9,1.4,12.1,1.8
	c5.8,0.7,11,1,15.9,0.8c0.1,0,0.1,0,0.1,0c4.2,0,8.2-0.3,12.5-0.8c4.7-0.4,8.7-1,12.5-1.9l3.5-0.4c2.9-0.8,5.9-1.6,9.2-2.5l4.1-1.5
	c3-1,5.7-1.9,8.5-3c5.3-2.3,7.9-3.6,10.3-4.8c2.1-1,3.3-1.7,4.5-2.5c4.4-2.5,7.3-4.3,10.3-6.4s6.1-4.4,9-6.9c3.1-2.5,6-5,8.6-7.6
	c9.1-8.8,16.8-18.7,23-29.7c1.4-2.6,2.7-4.9,3.7-7.3l1.8-3.3c1.3-3,2.3-5.6,3.3-8.2l0.2-0.8L236.7,357.4z M282.6,226.6
	c-0.3-0.5-0.7-1.2-1.1-1.8c-0.9-1.5-1.7-2.9-2.7-4.3c-1.3-2.1-2.7-4.1-4.2-6.2c-1.6-2.3-3.5-4.6-5.3-6.8l-38,11.5L31.2,279.8h-0.1
	c-0.1,1-0.2,2.1-0.3,3.2c-0.1,1.4-0.2,2.8-0.2,4.3c-0.1,1.9-0.1,4-0.1,6.1c0,1.5,0,3,0.1,4.4c0,2.1,0.1,4.1,0.3,6.2
	c0,0.5,0.1,1,0.1,1.5c0.1,0.6,0.1,1.1,0.2,1.6c0.1,0.4,0.1,0.8,0.2,1.2c0.4,4.5,1.1,9,2.1,13.4h0.1l8.8,4.2l8.8-18.3
	c1.8-3.6,4.8-6.4,8.7-7.7c3.8-1.3,7.9-1,11.6,0.7l17.3,8.6l8.1-17.5c1.6-3.6,4.7-6.5,8.5-7.8c3.8-1.4,7.9-1.2,11.6,0.5l18.5,8.9
	l9.4-18.9c3.6-7.4,12.5-10.4,19.9-6.8l18.3,8.8l8.8-18.4c1.8-3.6,4.8-6.4,8.7-7.7c3.8-1.3,7.9-1,11.6,0.7l17.3,8.7l8.1-17.6
	c0.8-1.7,1.9-3.2,3.1-4.5c1.5-1.4,3.3-2.6,5.4-3.3c3.8-1.4,7.9-1.1,11.6,0.5l18.5,8.9l7.7-15.5l0.1-0.1
	C283.2,227.7,282.9,227.1,282.6,226.6z M299.9,282.7c-0.1-1-0.2-2-0.3-3c0-0.1,0-0.2-0.1-0.2c-0.3-4.2-0.9-8.2-1.8-12.3l-1.6,3.3
	c-3.7,7.3-12.6,10.4-19.9,6.8l-18.1-8.7l-7.3,15.8l-0.9,1.9c-1.7,3.7-4.8,6.6-8.7,7.9c-3.8,1.3-8,1.1-11.6-0.7l-17.5-8.7l-8.7,18.1
	c-1.8,3.6-4.9,6.4-8.5,7.7c-3.7,1.3-7.9,1.1-11.5-0.7l-18.5-8.8l-9.4,18.9c-3.6,7.3-12.5,10.4-19.9,6.8l-18.1-8.7l-8.2,17.7
	c-1.7,3.7-4.8,6.5-8.7,7.9c-3.8,1.3-8,1-11.6-0.7l-17.5-8.7l-8.7,18.1c-2.5,5.4-7.9,8.5-13.5,8.5h-0.7c-0.1,0-0.1,0-0.1,0
	c1.9,3.3,4,6.6,6.2,9.7c0.2,0.2,0.3,0.5,0.5,0.7c1.3,1.8,2.7,3.5,4,5.2c0.7,0.9,1.4,1.8,2.1,2.7L248,322.6l51.4-15.6h0.1
	c0.1-0.9,0.2-1.9,0.2-2.8c0.4-3.4,0.5-7,0.5-10.9C300.3,289.8,300.2,286.2,299.9,282.7z M243.2,183.1c-3.6-2.5-6.9-4.7-10.5-6.8
	l-3.8-2.1c-2.9-1.5-5.8-3-9-4.3c-4.7-2.2-8.7-3.6-12.8-4.9l-4.9-1.4c-2.1-0.8-4.2-1.3-6.4-1.8c-7.8-1.8-15.3-2.8-22.2-3
	c-3.3-0.4-5.3-0.4-7.1-0.4h-1.1c-9.6,0-19.1,1-29.1,3.1c-3,0.7-6.2,1.5-9.3,2.4c-40.8,12.1-73.3,43.1-87.8,82l173.5-52.6l31.5-9.5
	C243.8,183.6,243.5,183.4,243.2,183.1z"/>
<g id="white">
	<path id="white_x5F_inside_x5F_bot" class="st1" d="M299.4,293c0,3.9-0.1,7.5-0.5,10.9c-0.1,0.9-0.1,1.9-0.2,2.8h-0.1l-51.4,15.6
		L60.5,378.9c-0.7-0.9-1.5-1.8-2.1-2.7c-1.3-1.7-2.7-3.5-4-5.2c-0.2-0.2-0.3-0.5-0.5-0.7c-2.2-3.1-4.3-6.4-6.2-9.7
		c0.1,0,0.1,0,0.1,0h0.7c5.6,0,11-3.1,13.5-8.5l8.7-18.1l17.5,8.7c3.6,1.8,7.8,2.1,11.6,0.7c3.9-1.4,7-4.2,8.7-7.9l8.2-17.7
		l18.1,8.7c7.3,3.6,16.2,0.5,19.9-6.8l9.4-18.9l18.5,8.8c3.6,1.8,7.7,1.9,11.5,0.7c3.7-1.3,6.8-4.1,8.5-7.7l8.7-18.1l17.5,8.7
		c3.6,1.8,7.9,2.1,11.6,0.7c3.9-1.3,7-4.2,8.7-7.9l0.9-1.9l7.3-15.8l18.1,8.7c7.3,3.6,16.2,0.5,19.9-6.8l1.6-3.3
		c0.9,4.1,1.5,8.1,1.8,12.3c0.1,0.1,0.1,0.2,0.1,0.2c0.1,1,0.2,2,0.3,3C299.3,285.8,299.4,289.4,299.4,293z"/>
	<path id="white_x5F_inside_x5F_top" class="st1" d="M283.6,228.3L283.6,228.3l-7.8,15.6l-18.5-8.9c-3.6-1.7-7.8-1.9-11.6-0.5
		c-2.1,0.7-3.9,1.9-5.4,3.3c-1.3,1.3-2.4,2.8-3.1,4.5l-8.1,17.6l-17.3-8.7c-3.6-1.8-7.8-2.1-11.6-0.7c-3.8,1.3-6.9,4.1-8.7,7.7
		l-8.8,18.3l-18.3-8.8c-7.4-3.6-16.3-0.5-19.9,6.8l-9.4,18.9l-18.5-8.9c-3.6-1.7-7.8-1.9-11.6-0.5c-3.8,1.3-6.9,4.2-8.5,7.8
		l-8.1,17.5l-17.3-8.6c-3.6-1.8-7.8-2.1-11.6-0.7c-3.8,1.3-6.9,4.1-8.7,7.7L42,326l-8.8-4.2h-0.1c-1-4.4-1.7-8.9-2.1-13.4
		c-0.1-0.4-0.1-0.8-0.2-1.2c-0.1-0.5-0.1-1-0.2-1.6c0-0.5-0.1-1-0.1-1.5c-0.2-2.1-0.3-4.1-0.3-6.2c-0.1-1.4-0.1-3-0.1-4.4
		c0-2.1,0.1-4.2,0.1-6.1c0.1-1.5,0.1-2.9,0.2-4.3c0.1-1.1,0.2-2.2,0.3-3.2h0.1l200.1-60.7l38-11.5c1.8,2.2,3.6,4.5,5.3,6.8
		c1.5,2.1,2.9,4.1,4.2,6.2c1,1.4,1.8,2.8,2.7,4.3c0.4,0.6,0.8,1.3,1.1,1.8C283,227.2,283.3,227.8,283.6,228.3z"/>
</g>
<path id="grey_x5F_top" class="st2" d="M186.5,129.9c-3.8-0.5-7.3-0.7-10.3-0.7c-4.4-0.7-8.7-1-13.1-1c-6.2,0-12.4,0.6-18.8,1.6
	l9.4-30.9c0.9-2.7,3.3-4.5,6.1-4.5h0.2c0-0.1-0.1-0.2-0.1-0.4c1.8,0.2,3.6,0.4,5.5,0.4h5.6c2.8,0,5.3,1.8,6.1,4.5L186.5,129.9z"/>
</svg>
