<?xml version="1.0" encoding="utf-8"?>
<!-- Generator: Adobe Illustrator 23.0.1, SVG Export Plug-In . SVG Version: 6.00 Build 0)  -->
<svg version="1.1" id="Icons" xmlns="http://www.w3.org/2000/svg" xmlns:xlink="http://www.w3.org/1999/xlink" x="0px" y="0px"
	 viewBox="0 0 49.5 77.8" style="enable-background:new 0 0 49.5 77.8;" xml:space="preserve">
<style type="text/css">
	.st0{fill:#FFFFFF;}
	.st1{fill:#0050A8;}
	.st2{fill:#009627;}
	.st3{fill:#231F20;}
</style>
<path id="white_x5F_inside" class="st0" d="M5.4,25.4c0,0-2.9-5.8-1-8.1S11.2,8.1,14.8,7s3.5-3.5,10.7-2.4s8.8,1.3,11.3,3.2
	s5.6,6.4,6.9,8.5s1.4,5.1,1.8,7.9s0.5,0.1,0,4.7s0.7-0.4-0.7,7s-1,5.9-1.9,11.2s-0.6,4.4-1.4,9.1s-1.5,8-2.8,11.2s0.9,7.2-3.4,6.7
	s-9.4-1.4-9.3-4s-0.3-3.3,0.1-4.4c0,0,0.9-9.3,2-13.6s4.6-21.3,4.6-21.3l0.6-7.2c0,0,1.4-4-1.9-5.9s-7.3-2.3-10.8-0.3s-6,7.9-6,7.9
	l-8.1,2.5l-0.8-2.2L5.4,25.4z"/>
<g id="top">
	<path class="st1" d="M37,9.3L37,9.3L33.8,10L6.9,15.7c0-0.1,0.1-0.2,0.1-0.2c0.1-0.2,0.3-0.5,0.4-0.7c0.2-0.3,0.3-0.5,0.5-0.8
		c0.5-0.8,1.1-1.5,1.7-2.2c0.2-0.2,0.4-0.5,0.6-0.7c0.2-0.2,0.4-0.4,0.7-0.7c0.2-0.2,0.4-0.4,0.7-0.6c0.1-0.1,0.2-0.1,0.2-0.2l0,0
		l16-3.4L30,5.7l0,0c0.5,0.1,1.1,0.3,1.6,0.5c0.1,0.1,0.3,0.1,0.4,0.2c0.8,0.3,1.6,0.7,2.4,1.2l0,0c0.6,0.3,1.2,0.7,1.8,1.1
		C36.4,8.8,36.7,9,37,9.3z"/>
</g>
<g id="left">
	<path class="st2" d="M17.5,15.9L17.4,16c-0.2,0.1-0.3,0.3-0.5,0.4s-0.3,0.3-0.4,0.4s-0.2,0.2-0.2,0.3c-0.2,0.2-0.4,0.5-0.6,0.7
		c-0.4,0.5-0.7,0.9-1,1.4s-0.6,1.1-0.8,1.6c-0.1,0.3-0.2,0.6-0.3,0.9l0,0l-8.2,1.6l0,0c-0.3-0.5-0.4-1-0.4-1.6v-0.1v-0.1l0-0.6l0,0
		c0.2-0.9,0.5-1.8,0.8-2.7l0,0L17.5,15.9L17.5,15.9z"/>
</g>
<g id="right">
	<path class="st2" d="M42.2,15.5L42.2,15.5l-4,0.8l-5,1l0,0c-0.3-0.4-0.7-0.7-1-1c-0.3-0.3-0.7-0.6-1.1-0.9c-0.9-0.7-2-1.2-3.1-1.6
		c-0.1,0-0.1,0-0.2-0.1c-0.3-0.1-0.5-0.2-0.8-0.3l8-1.6l3.7-0.7l0,0c0.9,0.9,1.8,1.9,2.6,2.9C41.6,14.5,41.9,15,42.2,15.5z"/>
</g>
<g id="blue2">
	<path class="st1" d="M44.4,22.3L44.4,22.3l-4,0.9L36.6,24l0,0c0-0.2,0-0.4-0.1-0.5c0-0.4-0.1-0.8-0.2-1.2c-0.1-0.3-0.1-0.6-0.2-0.9
		C36,21.2,36,21,35.9,20.7c-0.2-0.5-0.4-1-0.6-1.4l0,0l4.1-0.9l3.8-0.8l0,0c0.1,0.3,0.2,0.6,0.3,0.9l0,0c0.2,0.5,0.3,1,0.5,1.6
		C44.2,20.8,44.3,21.5,44.4,22.3z"/>
</g>
<g id="green2">
	<path class="st2" d="M44.5,26.4L44.5,26.4c0,0.4,0,0.7-0.1,1c0,0.3-0.1,0.6-0.1,0.9c0,0.2-0.1,0.4-0.1,0.6L44,29.8l0,0l-4.1,0.9
		l-4.3,0.9l0,0l0.9-4.3c0.1-0.3,0.1-0.7,0.1-1l0,0l3.9-0.8l4.1-0.9l0,0C44.6,25.2,44.6,25.8,44.5,26.4z"/>
</g>
<g id="blue3">
	<polygon class="st1" points="43.5,32.1 42.4,37.4 42.4,37.4 38.4,38.3 34,39.3 34,39.3 35.1,34 35.1,33.9 39.4,33 	"/>
</g>
<g id="green3">
	<polygon class="st2" points="42,39.8 40.9,45.1 40.9,45.1 37,46 32.5,46.9 32.5,46.9 33.6,41.6 33.6,41.6 38,40.7 	"/>
</g>
<g id="blue4">
	<polygon class="st1" points="40.4,47.5 39.3,52.8 39.3,52.8 35.5,53.6 30.9,54.6 32,49.3 32,49.3 36.5,48.3 	"/>
</g>
<g id="green4">
	<polygon class="st2" points="38.8,55.2 37.8,60.5 37.7,60.5 34,61.3 29.3,62.3 30.4,57 30.4,57 35.1,56 	"/>
</g>
<g id="bottom">
	<path class="st1" d="M37.3,62.8l-1.1,5.3l0,0l-3.6,0.8l-4.4,1l0,0c-0.1-0.5-0.2-1-0.1-1.5l0.1-0.5l0.7-3.2l0,0l4.8-1L37.3,62.8z"/>
</g>
<path id="outline" class="st3" d="M48.8,18.9c-0.1-0.2-0.1-0.5-0.2-0.7c-0.2-0.7-0.4-1.4-0.7-2.1c-0.1-0.4-0.3-0.8-0.5-1.1
	c-0.1-0.3-0.3-0.6-0.4-0.9c-0.5-0.9-1-1.8-1.5-2.6c-0.2-0.2-0.3-0.5-0.5-0.7c-0.1-0.1-0.1-0.2-0.2-0.3c-0.2-0.3-0.5-0.6-0.7-1
	c-0.5-0.6-1-1.2-1.6-1.8c-0.1-0.2-0.3-0.3-0.5-0.5c-0.4-0.4-0.8-0.8-1.3-1.1c-0.6-0.5-1.2-0.9-1.8-1.3c-1.1-0.8-2.1-1.4-3.3-2
	S33.2,1.7,32,1.3c-0.6-0.2-1.2-0.4-1.8-0.5c-0.2-0.1-0.5-0.1-0.7-0.2c-0.4-0.1-0.8-0.2-1.2-0.2l0,0c-0.4-0.1-0.8-0.1-1.3-0.1
	c-1.7-0.2-3.3-0.2-5,0c-0.3,0-0.6,0.1-0.9,0.1l-3.9,0.9c-1.6,0.5-3.2,1.2-4.7,2c-0.5,0.3-1,0.6-1.5,0.9l0,0c-0.5,0.3-0.9,0.7-1.4,1
	c-0.4,0.3-0.9,0.7-1.3,1l0,0C8,6.5,7.7,6.8,7.5,7C7.2,7.3,6.9,7.6,6.6,7.8C6.5,8,6.4,8.1,6.3,8.2C5.6,8.9,5,9.7,4.4,10.5
	c-0.2,0.3-0.5,0.6-0.7,1c-0.2,0.3-0.4,0.6-0.6,1C3,12.7,2.8,13,2.7,13.3c-0.2,0.4-0.4,0.7-0.6,1.1c-0.1,0.2-0.2,0.4-0.3,0.7
	c-0.7,1.6-1.2,3.2-1.5,4.8c0,0.1,0,0.1-0.1,0.2l0,0l0,0c0,0.2-0.1,0.4-0.1,0.6c0,0.1,0,0.2,0,0.3L0,21.6c0,0.3,0,0.6,0,0.9
	c0,0.2,0,0.4,0.1,0.6c0,0.2,0.1,0.4,0.1,0.6c0,0.1,0,0.1,0,0.2c0,0.2,0.1,0.3,0.1,0.5C1.2,26.9,3,29,5.4,30l0,0
	c0.2,0.1,0.4,0.1,0.6,0.2c0.3,0.2,0.6,0.2,0.9,0.3c0.1,0,0.1,0,0.2,0c0.2,0,0.3,0.1,0.5,0.1s0.4,0.1,0.7,0.1c0.8,0,1.5,0,2.2-0.1
	c0.3,0,0.5-0.1,0.8-0.2c0.1,0,0.3-0.1,0.4-0.1c1.1-0.4,2.1-0.9,3-1.7l0,0c0.2-0.2,0.4-0.3,0.6-0.5c0.5-0.5,1-1.1,1.4-1.8
	c0.2-0.3,0.4-0.6,0.5-1c0.1-0.3,0.3-0.7,0.4-1c0.1-0.2,0.1-0.5,0.2-0.7c0.1-0.3,0.2-0.7,0.3-1c0.2-0.5,0.4-0.9,0.7-1.3
	c0.2-0.3,0.4-0.6,0.6-0.9c0.1-0.1,0.2-0.3,0.4-0.4l0,0c1.7-1.8,4.1-2.5,6.4-2c0.1,0,0.2,0.1,0.4,0.1c0.1,0,0.2,0,0.3,0.1
	c0.1,0,0.2,0.1,0.3,0.1c0.1,0,0.2,0.1,0.4,0.1c0.5,0.2,0.9,0.4,1.3,0.7c0.1,0.1,0.3,0.2,0.4,0.3c0.3,0.2,0.6,0.5,0.9,0.8
	c0.2,0.2,0.3,0.4,0.5,0.6s0.3,0.4,0.4,0.7c0.1,0.2,0.3,0.5,0.4,0.7c0.1,0.1,0.1,0.3,0.1,0.4c0.1,0.1,0.1,0.3,0.1,0.4
	s0.1,0.2,0.1,0.3c0,0.1,0.1,0.2,0.1,0.3c0,0.2,0.1,0.4,0.1,0.6c0,0.1,0,0.3,0,0.4c0,0.2,0,0.3,0,0.5s0,0.5,0,0.7s0,0.5-0.1,0.7
	l-4,19.4L23.4,67l-0.1,0.2l-0.1,0.4c0,0.2-0.1,0.4-0.1,0.6l0,0c0,0.1,0,0.2,0,0.3c0,0.2,0,0.4,0,0.6c0,1.6,0.4,3.1,1.1,4.4
	c0.3,0.4,0.5,0.8,0.8,1.2c0.2,0.2,0.3,0.4,0.5,0.6s0.4,0.4,0.5,0.5c0.8,0.7,1.6,1.2,2.6,1.6c0.5,0.2,1,0.3,1.5,0.4
	c0.1,0,0.2,0,0.3,0.1h0.1c0.1,0,0.3,0,0.4,0.1l0,0c0.1,0,0.1,0,0.2,0c0.3,0,0.5,0,0.8,0c1.4,0,2.7-0.3,3.9-0.9
	c0.2-0.1,0.4-0.2,0.5-0.3c0.2-0.1,0.4-0.2,0.6-0.4c0.4-0.3,0.8-0.6,1.2-0.9c0.2-0.2,0.3-0.3,0.5-0.5c0,0,0,0,0.1-0.1
	s0.3-0.3,0.4-0.4c0.1-0.1,0.1-0.1,0.1-0.2c0.1-0.2,0.3-0.3,0.4-0.5l0,0c0.1-0.2,0.2-0.4,0.3-0.6c0.2-0.5,0.4-0.9,0.6-1.4
	c0-0.1,0.1-0.3,0.1-0.4c0-0.2,0.1-0.3,0.1-0.4L49,30c0.1-0.5,0.2-1.1,0.3-1.6c0-0.2,0.1-0.3,0.1-0.5c0-0.1,0-0.2,0-0.3
	c0-0.1,0-0.1,0-0.2s0-0.3,0-0.4C49.7,24.3,49.4,21.6,48.8,18.9z M44.5,26.6L44.5,26.6c0,0.4-0.1,0.7-0.1,1s-0.1,0.6-0.1,0.9
	c0,0.2-0.1,0.4-0.1,0.6L44,29.9l-0.5,2.4l-1.1,5.3L42,40l-1.1,5.3l-0.5,2.4L39.3,53l-0.5,2.4l-1.1,5.3L37.3,63l0,0l-1.1,5.3l0,0
	l-0.3,1.6c-0.1,0.3-0.2,0.7-0.3,0.9c0,0.1-0.1,0.2-0.2,0.3c0,0.1-0.1,0.2-0.1,0.2c-0.3,0.4-0.6,0.8-1.1,1c-0.7,0.4-1.5,0.7-2.3,0.7
	c-0.2,0-0.5,0-0.7-0.1c-0.1,0-0.2-0.1-0.3-0.1l0,0c-0.1,0-0.2-0.1-0.3-0.1c-0.1,0-0.3-0.1-0.4-0.2c-0.1,0-0.1-0.1-0.2-0.1
	c0,0-0.1,0-0.1-0.1c-0.1-0.1-0.3-0.2-0.4-0.3l0,0c-0.2-0.1-0.3-0.3-0.4-0.4l0,0c-0.4-0.4-0.6-0.9-0.8-1.5c-0.1-0.5-0.2-1-0.1-1.5
	l0.1-0.5l0.7-3.2l0,0l0.5-2.4l1.1-5.3l0,0l0.5-2.4l1.1-5.3l0.5-2.4l1.1-5.3l0.5-2.4l1.1-5.3l0.5-2.4l0.9-4.3c0.1-0.3,0.1-0.7,0.1-1
	c0.1-0.8,0.1-1.5,0.1-2.3c0-0.2,0-0.4-0.1-0.5c0-0.4-0.1-0.8-0.2-1.2c-0.1-0.3-0.1-0.6-0.2-0.9c-0.1-0.2-0.1-0.4-0.2-0.7
	c-0.2-0.5-0.4-1-0.6-1.4l0,0c-0.4-0.7-0.8-1.4-1.3-2l0,0c-0.3-0.4-0.6-0.7-0.9-1c-0.3-0.3-0.6-0.6-1-0.9c-0.9-0.7-1.8-1.2-2.8-1.6
	c-0.1,0-0.1,0-0.1-0.1c-0.2-0.1-0.5-0.2-0.7-0.3l0,0c-0.2-0.1-0.5-0.2-0.8-0.2c-0.2-0.1-0.4-0.1-0.6-0.1c-1-0.2-2-0.3-2.9-0.2
	c-0.2,0-0.5,0-0.7,0.1c-0.4,0-0.8,0.1-1.1,0.2c-0.3,0.1-0.5,0.1-0.8,0.2c-0.1,0-0.3,0.1-0.4,0.1c-0.2,0.1-0.4,0.1-0.6,0.2
	c-0.3,0.1-0.6,0.2-0.9,0.4c-0.1,0-0.1,0-0.1,0.1c-0.3,0.1-0.6,0.3-0.9,0.5c-0.6,0.3-1.1,0.7-1.6,1.1C17.4,16,17.4,16,17.3,16
	c0,0,0,0-0.1,0.1l-0.1,0.1L17,16.3c-0.1,0.1-0.3,0.3-0.4,0.4s-0.3,0.3-0.4,0.4s-0.1,0.2-0.2,0.3c-0.2,0.2-0.4,0.5-0.5,0.7
	c-0.3,0.5-0.6,0.9-0.9,1.4c-0.3,0.5-0.5,1.1-0.7,1.6c-0.1,0.3-0.2,0.6-0.3,0.9s-0.1,0.5-0.2,0.7c0,0.1-0.1,0.2-0.1,0.3
	c0,0.1-0.1,0.2-0.1,0.3c-0.1,0.2-0.2,0.4-0.3,0.6c-0.2,0.3-0.4,0.5-0.6,0.8c-0.1,0.1-0.1,0.2-0.2,0.2c0,0,0,0-0.1,0
	c-0.2,0.2-0.5,0.4-0.8,0.5c-0.1,0-0.2,0.1-0.3,0.1c-0.4,0.2-0.9,0.3-1.4,0.3c-0.2,0-0.4,0-0.8-0.1l-0.3-0.1l0,0
	c-0.1,0-0.2-0.1-0.3-0.1c-0.2-0.1-0.4-0.2-0.6-0.3c-0.3-0.2-0.6-0.4-0.8-0.6c-0.2-0.2-0.3-0.3-0.4-0.5c-0.1-0.1-0.1-0.2-0.2-0.3
	C6,23.7,6,23.6,5.9,23.5c-0.3-0.5-0.4-1-0.4-1.6v-0.1v-0.1c0-0.2,0-0.5,0.1-0.7l0,0c0.2-0.9,0.4-1.8,0.8-2.7c0.2-0.7,0.5-1.4,0.8-2
	c0.1-0.2,0.2-0.3,0.3-0.5c0-0.1,0.1-0.2,0.1-0.2c0.1-0.2,0.3-0.5,0.4-0.7c0.2-0.3,0.3-0.5,0.5-0.8c0.5-0.8,1.1-1.5,1.7-2.2
	c0.2-0.2,0.4-0.5,0.6-0.7c0.2-0.2,0.4-0.5,0.7-0.7c0.2-0.2,0.4-0.4,0.7-0.6c0.1-0.1,0.2-0.1,0.2-0.2c2-1.7,4.3-3,6.8-3.7h0.1
	c0.1,0,0.2-0.1,0.3-0.1l2.9-0.6c0.5-0.1,0.9-0.1,1.4-0.1c0.2,0,0.5,0,0.7,0c0.3,0,0.6,0,0.9,0l0,0c0.3,0,0.6,0,0.9,0
	c0.6,0,1.3,0.1,1.9,0.2c0.3,0.1,0.7,0.1,1,0.2s0.7,0.1,1,0.2c0.1,0,0.3,0.1,0.4,0.1l0,0c0.5,0.1,1.1,0.3,1.6,0.5
	c0.1,0.1,0.3,0.1,0.4,0.2c0.8,0.3,1.6,0.7,2.4,1.2l0,0c-0.1,0.2,0.5,0.6,1.1,1C36.4,9,36.7,9.2,37,9.4c0.1,0.1,0.2,0.2,0.3,0.3
	s0.2,0.2,0.3,0.3c0.2,0.2,0.4,0.4,0.6,0.6l0,0c0.2,0.2,0.5,0.4,0.7,0.7c0,0,0,0,0.1,0.1l0,0c0.8,0.9,1.6,1.9,2.3,2.9
	c0.3,0.5,0.6,1,0.9,1.5c0.2,0.3,0.4,0.7,0.5,1c0.2,0.4,0.3,0.7,0.5,1.1c0.1,0.3,0.2,0.6,0.3,0.9l0,0c0.2,0.5,0.3,1,0.5,1.6
	c0.2,0.8,0.4,1.5,0.5,2.3c0.1,0.7,0.1,1.5,0.1,2.3C44.6,25.3,44.6,25.9,44.5,26.6z"/>
</svg>
