<?xml version="1.0" encoding="utf-8"?>
<!-- Generator: Adobe Illustrator 23.0.1, SVG Export Plug-In . SVG Version: 6.00 Build 0)  -->
<svg version="1.1" id="Layer_2_1_" xmlns="http://www.w3.org/2000/svg" xmlns:xlink="http://www.w3.org/1999/xlink" x="0px" y="0px"
	 viewBox="0 0 54.5 75.7" style="enable-background:new 0 0 54.5 75.7;" xml:space="preserve">
<style type="text/css">
	.st0{fill:#FFDA00;}
	.st1{fill:#CCC200;}
	.st2{fill:none;stroke:#00BBF4;stroke-width:3;stroke-linecap:round;stroke-miterlimit:10;}
</style>
<ellipse id="bg" class="st0" cx="27.1" cy="48.9" rx="24" ry="23.9"/>
<path id="outline" d="M36.3,22.8l-2.4-7.9c-0.3-0.8-0.6-1.5-1.2-2.1c1-1.4,1.7-3.1,1.7-5c0-4.3-3.2-7.8-7.2-7.8S20,3.5,20,7.8
	c0,1.9,0.6,3.6,1.7,5c-0.5,0.6-0.9,1.3-1.1,2.1l-2.4,7.9C7.6,26.5,0,36.6,0,48.5c0,15,12.2,27.2,27.2,27.2s27.2-12.2,27.2-27.2
	C54.5,36.6,46.9,26.5,36.3,22.8z M27.2,4.9c1.2,0,2.2,1.3,2.2,2.8s-1,2.8-2.2,2.8C26,10.6,25,9.3,25,7.8S26,4.9,27.2,4.9z
	 M25.3,16.3c0.1-0.4,0.5-0.8,1-0.8l0,0c0,0,0,0,0-0.1c0.3,0,0.6,0.1,0.9,0.1h0.9c0.5,0,0.9,0.3,1,0.8l1.6,5.1
	c-1.1-0.1-2.3-0.2-3.5-0.2c-0.1,0-0.3,0-0.4,0c-1,0-2.1,0.1-3.1,0.2L25.3,16.3z M27.4,70.7c-0.1,0-0.1,0-0.2,0
	C15,70.8,5,60.8,5,48.5s10-22.3,22.3-22.3c0.1,0,0.1,0,0.2,0c12.2,0.1,22.1,10.1,22.1,22.3C49.5,60.7,39.6,70.6,27.4,70.7z"/>
<path id="grey_top" class="st1" d="M30.7,21.5c-1.1-0.1-2.3-0.2-3.5-0.2c-0.1,0-0.3,0-0.4,0c-1,0-2.1,0.1-3.1,0.2l1.6-5.1
	c0.1-0.4,0.5-0.8,1-0.8l0,0c0,0,0,0,0-0.1c0.3,0,0.6,0.1,0.9,0.1h0.9c0.5,0,0.9,0.3,1,0.8L30.7,21.5z"/>
<g id="flake">
	<g id="flakeMain">
		<line class="st2" x1="27.5" y1="30.4" x2="27.5" y2="65.8"/>
		<line class="st2" x1="12.2" y1="56.8" x2="42.9" y2="38.9"/>
		<line class="st2" x1="12.4" y1="39.1" x2="42.9" y2="56.8"/>
	</g>
	<g id="flakeSub">
		<polyline class="st2" points="33.4,62.2 27.6,56.9 21.9,62.2 		"/>
		<polyline class="st2" points="17.7,35.7 19.4,43.3 12,45.6 		"/>
		<polyline class="st2" points="17.7,60.2 19.4,52.6 12,50.3 		"/>
		<polyline class="st2" points="37,35.7 35.3,43.3 42.7,45.6 		"/>
		<polyline class="st2" points="37,60.2 35.3,52.6 42.7,50.3 		"/>
		<polyline class="st2" points="21.7,33.7 27.5,38.9 33.2,33.6 		"/>
	</g>
</g>
</svg>
