<?xml version="1.0" encoding="utf-8"?>
<!-- Generator: Adobe Illustrator 23.0.1, SVG Export Plug-In . SVG Version: 6.00 Build 0)  -->
<svg version="1.1" id="icon9" xmlns="http://www.w3.org/2000/svg" xmlns:xlink="http://www.w3.org/1999/xlink" x="0px" y="0px"
	 viewBox="0 0 72.5 67" style="enable-background:new 0 0 72.5 67;" xml:space="preserve">
<style type="text/css">
	.st0{fill:#231F20;}
	.st1{fill:#06ACFF;}
	.st2{fill:#D4E217;}
</style>
<path id="outline" class="st0" d="M70.1,20.8H44c0.9-0.7,1.8-1.6,2.6-2.4c5.7-5.8,9.4-13.5,5.6-17.3c-0.5-0.5-1.8-1.4-3.8-1
	c-4.2,0.8-10,6.6-14.2,13.9c-1.4-1.7-3.2-3.8-5-5.3c-3.9-3.2-6.4-2.5-7.9-1.3c-3.5,2.9-3.5,8.5,0,12.9c0.2,0.2,0.3,0.4,0.5,0.6H2.5
	C1.1,20.9,0,22,0,23.4v11.3C0,35.9,1.1,37,2.5,37h5v27.6c0,1.4,1.1,2.5,2.5,2.5h52.6c1.4,0,2.5-1.1,2.5-2.5V37h5
	c1.4,0,2.5-1.1,2.5-2.5V23.3C72.5,21.9,71.4,20.8,70.1,20.8z M48.8,5.1c0,1.5-1.5,5.5-5.7,9.8c-2.3,2.3-4.5,3.9-6.3,4.8
	C40.8,11.1,46.6,6,48.8,5.1z M41.3,62.1H35V37h6.3V62.1z M37.5,25.7V32h-6.3v-6.3H37.5z M24.2,11.3c0.4,0,2,0.5,6.4,6
	c0.2,0.3,0.6,0.7,0.9,1.1c-0.1,0.1-0.2,0.1-0.3,0.2L30.9,19l0,0c-0.7,0.6-1.8,0.5-2.3,0.3c-1.2-0.3-2.4-1.1-3.3-2.2
	C23.4,14.8,23.4,12.1,24.2,11.3z M4.9,32.1v-6.3h21.3v6.3H4.9z M12.5,37H30v25.1H12.5V37z M60.1,62.1H46.3V37h13.8V62.1z M67.6,32.1
	H42.5v-6.3h25.1V32.1z"/>
<rect id="top_x5F_left_x5F_blue" x="4.3" y="25.7" class="st1" width="22.1" height="6.5"/>
<g id="top_x5F_yellow">
	<rect x="31.3" y="25.3" class="st2" width="6.3" height="6.9"/>
</g>
<rect id="top_x5F_right_x5F_blue" x="42.5" y="25.3" class="st1" width="25.1" height="6.9"/>
<rect id="bottom_x5F_left_x5F_blue" x="12.5" y="36.5" class="st1" width="17.6" height="25.7"/>
<g id="middle_x5F_yellow">
	<polyline class="st2" points="41.4,62.3 34.1,62.3 34.1,35.7 41.4,35.7 	"/>
</g>
<g id="bottom_x5F_right_x5F_blue">
	<rect x="46.3" y="36.5" class="st1" width="13.8" height="25.7"/>
</g>
</svg>
