<?xml version="1.0" encoding="utf-8"?>
<!-- Generator: Adobe Illustrator 23.0.1, SVG Export Plug-In . SVG Version: 6.00 Build 0)  -->
<svg version="1.1" id="Layer_12" xmlns="http://www.w3.org/2000/svg" xmlns:xlink="http://www.w3.org/1999/xlink" x="0px" y="0px"
	 viewBox="0 0 46.7 64.9" style="enable-background:new 0 0 46.7 64.9;" xml:space="preserve">
<style type="text/css">
	.st0{fill:#CCC200;}
	.st1{fill:#00931C;}
	.st2{fill:#BA0000;}
</style>
<g>
	<g>
		<path class="st0" d="M26.4,18.4c-0.2,0-0.4-0.1-0.6-0.1c-0.4,0-0.8-0.1-0.8,0c-0.6-0.1-1.2-0.1-1.9-0.1c-0.9,0-1.8,0.1-2.7,0.2
			l1.3-4.4c0.1-0.4,0.5-0.6,0.9-0.6l0,0c0,0,0,0,0-0.1c0.3,0,0.5,0.1,0.8,0.1h0.8c0.4,0,0.8,0.3,0.9,0.6L26.4,18.4z"/>
	</g>
	<circle class="st1" cx="23.5" cy="42" r="21"/>
	<g id="heart">
		<path class="st2" d="M33.9,37.8c0,0.8-0.4,1.6-1,2.2l-9.6,9.2L13.8,40c-0.6-0.6-0.9-1.4-1-2.2c0-0.9,0.3-1.7,0.9-2.3
			c0.6-0.6,1.4-0.9,2.2-0.9c0.8,0,1.6,0.3,2.2,0.9l3.6,3.6c0.8,0.8,2.2,0.8,3,0l3.6-3.6c1.2-1.2,3.3-1.2,4.5,0
			C33.6,36.1,33.9,36.9,33.9,37.8z"/>
		<path class="st2" d="M36,32.5c-1-1-2.2-1.6-3.5-1.9c-2.4-0.6-5.2,0.1-7,1.9l-2.1,2.1l-2.1-2.1c-2.8-2.8-7.7-2.8-10.5,0
			c-1.4,1.4-2.2,3.3-2.1,5.3c0,2,0.8,3.9,2.3,5.2l11,10.6c0.4,0.4,0.9,0.6,1.5,0.6c0.5,0,1.1-0.2,1.5-0.6l10.6-10.1l0,0l0.5-0.4
			c1.4-1.4,2.2-3.2,2.3-5.2C38.2,35.8,37.4,33.9,36,32.5z M12.8,37.8c0-0.9,0.3-1.7,0.9-2.3c0.6-0.6,1.4-0.9,2.2-0.9
			c0.8,0,1.6,0.3,2.2,0.9l3.6,3.6c0.8,0.8,2.2,0.8,3,0l3.6-3.6c1.2-1.2,3.3-1.2,4.5,0c0.6,0.6,0.9,1.4,0.9,2.3c0,0.8-0.4,1.6-1,2.2
			l-9.6,9.2L13.8,40C13.2,39.4,12.9,38.7,12.8,37.8z"/>
	</g>
	<g id="outline">
		<path d="M46.6,39c-0.1-0.6-0.1-1.2-0.2-1.6c0-0.3-0.1-0.7-0.2-0.9c-0.1-0.5-0.2-0.9-0.3-1.4c-0.1-0.3-0.2-0.6-0.3-0.9L45.5,34
			c-0.2-0.5-0.4-1.1-0.6-1.6c-0.2-0.6-0.5-1.2-0.9-1.8l-0.2-0.4c-0.1-0.3-0.3-0.5-0.3-0.6c-0.2-0.4-0.4-0.7-0.5-0.8l-0.6-0.9
			c-0.4-0.6-0.8-1.1-1.1-1.3c-0.3-0.4-0.7-0.8-0.9-1.1c-0.2-0.2-0.3-0.4-0.5-0.6c-0.5-0.5-1-1-1.5-1.4c-1-0.9-2.1-1.6-3.1-2.1
			c-0.4-0.3-0.9-0.5-1.6-0.9c-0.3-0.1-0.5-0.3-0.5-0.2c-0.7-0.3-1.3-0.6-1.8-0.7c0,0,0,0-0.1,0l-2.1-6.8c-0.2-0.7-0.5-1.3-1-1.8
			c0.9-1.2,1.4-2.7,1.4-4.3C29.5,3,26.8,0,23.4,0s-6.2,3-6.2,6.7c0,1.6,0.5,3.1,1.4,4.3c-0.4,0.5-0.8,1.1-1,1.8l-2.1,6.8
			C6.2,22.8,0,31.5,0,41.6c0,10.9,7.7,20.5,18.4,22.8l0.5,0.1c0.7,0.1,1.4,0.2,2.1,0.3c0.8,0.1,1.6,0.1,2.5,0.1
			c12.9,0,23.4-10.5,23.4-23.4C46.7,40.8,46.7,39.8,46.6,39z M23.4,4.2c1,0,1.9,1.1,1.9,2.4S24.4,9,23.4,9s-1.9-1.1-1.9-2.4
			C21.4,5.4,22.3,4.2,23.4,4.2z M21.7,14c0.1-0.4,0.5-0.6,0.9-0.6l0,0c0,0,0,0,0-0.1c0.3,0,0.5,0.1,0.8,0.1h0.8
			c0.4,0,0.8,0.3,0.9,0.6l1.3,4.4c-0.2,0-0.4-0.1-0.6-0.1c-0.4,0-0.8-0.1-0.8,0c-0.6-0.1-1.2-0.1-1.9-0.1c-0.9,0-1.8,0.1-2.7,0.2
			L21.7,14z M23.5,60.7c-0.1,0-0.1,0-0.2,0c-0.6,0-1.3,0-2-0.1c-0.6-0.1-1.2-0.1-2-0.3L19,60.2c-8.6-2-14.8-9.8-14.8-18.6
			c0-8.5,5.5-15.9,13.7-18.3c0.4-0.1,0.9-0.2,1.3-0.3c1.4-0.3,2.8-0.4,4.1-0.4h0.2c0.2,0,0.5,0,1,0.1c0.3,0,0.5,0,0.8,0.1
			c0.6,0.1,1.3,0.2,1.9,0.3c0.5,0.1,0.9,0.2,1.4,0.4l1.1,0.3h0.1c0.5,0.1,0.9,0.3,1.6,0.7l0.5,0.2c0.4,0.2,0.7,0.4,1.2,0.7
			c0.8,0.5,1.6,1,2.5,1.7c0.4,0.4,0.9,0.7,1.3,1.1l0.4,0.4c0.2,0.2,0.4,0.5,0.8,1c0.3,0.3,0.5,0.6,0.8,1l1.5,2.3
			c0.2,0.4,0.4,0.8,0.6,1.3c0.2,0.4,0.3,0.7,0.4,1.1l0.1,0.3c0.1,0.3,0.2,0.6,0.4,1.2c0.1,0.2,0.2,0.5,0.2,0.9
			c0.1,0.2,0.1,0.4,0.2,0.8c0.1,0.4,0.1,0.9,0.2,1.3V40c0.1,0.6,0.1,1.3,0.1,1.9C42.5,52.1,34,60.6,23.5,60.7z"/>
	</g>
</g>
</svg>
