<?xml version="1.0" encoding="utf-8"?>
<!-- Generator: Adobe Illustrator 23.0.1, SVG Export Plug-In . SVG Version: 6.00 Build 0)  -->
<svg version="1.1" id="ornament_star" xmlns="http://www.w3.org/2000/svg" xmlns:xlink="http://www.w3.org/1999/xlink" x="0px"
	 y="0px" viewBox="0 0 54.5 75.8" style="enable-background:new 0 0 54.5 75.8;" xml:space="preserve">
<style type="text/css">
	.st0{fill:#FFFFFF;}
	.st1{fill:#28774A;}
	.st2{fill:#CCC200;}
	.st3{fill:#FFE600;stroke:#FFE600;stroke-width:3;stroke-miterlimit:10;}
</style>
<ellipse id="star_x5F_inside" class="st0" cx="27.2" cy="47.6" rx="24" ry="23.2"/>
<circle id="bg" class="st1" cx="27.3" cy="47.9" r="23.1"/>
<path id="silver" class="st2" d="M30.7,21.7c-1.1-0.1-2.3-0.2-3.5-0.2c-0.1,0-0.3,0-0.4,0c-1.1,0-2.1,0.1-3.1,0.2l1.6-5.1
	c0.1-0.5,0.5-0.8,1-0.8l0,0v-0.1c0.3,0.1,0.6,0.1,0.9,0.1h0.9c0.5,0,0.9,0.3,1,0.8L30.7,21.7z"/>
<g id="outline">
	<path d="M36.2,22.8l-2.4-7.7c-0.2-0.8-0.6-1.5-1.1-2.1c1-1.3,1.6-3,1.6-4.8c0-4.2-3.2-7.6-7.1-7.6S20.1,4,20.1,8.2
		c0,1.8,0.6,3.5,1.6,4.8c-0.5,0.6-0.9,1.3-1.1,2.1l-2.4,7.7C7.9,26.5,0.4,36.3,0.4,47.8c0,14.6,12,26.5,26.9,26.5
		c14.8,0,26.8-11.9,26.8-26.5C54.1,36.3,46.6,26.5,36.2,22.8z M27.3,5.5c1.2,0,2.2,1.3,2.2,2.8s-1,2.8-2.2,2.8s-2.2-1.3-2.2-2.8
		C25.1,6.7,26.1,5.5,27.3,5.5z M30.7,21.5c-1.1-0.1-2.3-0.2-3.4-0.2c-0.1,0-0.3,0-0.4,0c-1,0-2.1,0.1-3.1,0.2l1.5-5
		c0.1-0.4,0.5-0.7,1-0.7l0,0v-0.1c0.3,0,0.6,0.1,0.9,0.1h0.9c0.5,0,0.9,0.3,1,0.7 M27.5,69.5L27.5,69.5c-0.1,0-0.1,0-0.2,0
		c-12.1,0-22-9.7-22-21.7c0-11.9,9.9-21.7,22-21.7c0.1,0,0.1,0,0.2,0l0,0c12,0.1,21.8,9.8,21.8,21.7C49.2,59.7,39.5,69.4,27.5,69.5z
		"/>
</g>
<polygon id="star" class="st3" points="24.4,44 27.5,34.6 30.6,44 40.6,44 32.6,49.8 35.5,59 27.5,53.5 19.4,59.2 22.5,49.9 
	14.3,44 "/>
</svg>
