<?xml version="1.0" encoding="utf-8"?>
<!-- Generator: Adobe Illustrator 23.0.1, SVG Export Plug-In . SVG Version: 6.00 Build 0)  -->
<svg version="1.1" id="candycane" xmlns="http://www.w3.org/2000/svg" xmlns:xlink="http://www.w3.org/1999/xlink" x="0px" y="0px"
	 viewBox="0 0 49.5 77.8" style="enable-background:new 0 0 49.5 77.8;" xml:space="preserve">
<style type="text/css">
	.st0{fill:#FFFFFF;}
	.st1{fill:#231F20;}
	.st2{fill:#FF5656;}
	.st3{fill:#69F4A5;}
</style>
<path id="white_x5F_inside" class="st0" d="M4.6,25.2c0,0-2.9-5.8-1-8.1S10.4,7.9,14,6.7s3.5-3.5,10.7-2.4S33.5,5.6,36,7.5
	s5.6,6.4,6.9,8.5s1.4,5.1,1.8,7.9s0.5,0.1,0,4.7s0.7-0.4-0.7,7s-1,5.9-1.9,11.2s-0.6,4.4-1.4,9.1s-1.5,8-2.8,11.2s0.9,7.2-3.4,6.7
	s-9.4-1.4-9.3-4s-0.3-3.3,0.1-4.4c0,0,0.9-9.3,2-13.6s4.6-21.3,4.6-21.3l0.6-7.2c0,0,1.4-4-1.9-5.9s-7.3-2.3-10.7-0.3s-6,7.9-6,7.9
	l-8.1,2.5L5,25.3L4.6,25.2z"/>
<g id="outline">
	<g>
		<path class="st1" d="M48.8,18.8c-0.1-0.2-0.1-0.5-0.2-0.7c-0.2-0.7-0.4-1.4-0.7-2.1c-0.1-0.4-0.3-0.8-0.5-1.1
			c-0.1-0.3-0.3-0.6-0.4-0.9c-0.5-0.9-1-1.8-1.5-2.6c-0.2-0.2-0.3-0.5-0.5-0.7c-0.1-0.1-0.1-0.2-0.2-0.3c-0.2-0.3-0.5-0.6-0.7-1
			c-0.5-0.6-1-1.2-1.6-1.8c-0.2-0.2-0.3-0.3-0.5-0.5c-0.4-0.4-0.8-0.8-1.3-1.1c-0.5-0.5-1.1-1-1.7-1.4c-1.1-0.8-2.1-1.4-3.3-2
			s-2.4-1.1-3.6-1.5c-0.6-0.2-1.2-0.4-1.8-0.5c-0.2-0.1-0.5-0.1-0.7-0.2c-0.4-0.1-0.8-0.2-1.2-0.2l0,0c-0.4-0.1-0.8-0.1-1.3-0.1
			c-1.7-0.2-3.3-0.2-5,0c-0.3,0-0.6,0.1-0.9,0.1l-3.9,0.9c-1.6,0.5-3.2,1.2-4.7,2c-0.5,0.3-1,0.6-1.5,0.9l0,0
			c-0.5,0.3-0.9,0.7-1.4,1c-0.5,0.3-1,0.7-1.4,1.1l0,0C8,6.3,7.7,6.6,7.5,6.9C7.2,7.1,6.9,7.4,6.6,7.7C6.5,7.8,6.4,7.9,6.3,8.1
			C5.6,8.8,5,9.5,4.4,10.3c-0.2,0.3-0.5,0.6-0.7,1c-0.2,0.3-0.4,0.6-0.6,1c-0.2,0.3-0.3,0.6-0.5,0.9c-0.2,0.4-0.4,0.7-0.6,1.1
			c-0.1,0.2-0.2,0.4-0.3,0.7c-0.7,1.6-1.2,3.2-1.5,4.8c0,0.1,0,0.1-0.1,0.2l0,0l0,0c0,0.2-0.1,0.4-0.1,0.6c0,0.1,0,0.2,0,0.3v0.5
			c0,0.3,0,0.6,0,0.9c0,0.2,0,0.4,0.1,0.6c0,0.2,0.1,0.4,0.1,0.6c0,0.1,0,0.1,0,0.2c0,0.2,0.1,0.3,0.1,0.5c0.8,2.5,2.6,4.6,5,5.6
			l0,0c0.2,0.1,0.4,0.1,0.6,0.2c0.3,0.2,0.6,0.2,0.9,0.3c0.1,0,0.1,0,0.2,0c0.2,0,0.3,0.1,0.5,0.1s0.4,0.1,0.7,0.1
			c0.8,0,1.5,0,2.2-0.1c0.3,0,0.5-0.1,0.8-0.2c0.1,0,0.3-0.1,0.4-0.1c1.1-0.4,2.1-0.9,3-1.7l0,0c0.2-0.2,0.4-0.3,0.6-0.5
			c0.5-0.5,1-1.1,1.3-1.8c0.2-0.3,0.4-0.6,0.5-1c0.1-0.3,0.3-0.7,0.4-1c0.1-0.2,0.1-0.5,0.2-0.7c0.1-0.3,0.2-0.7,0.3-1
			c0.2-0.5,0.4-0.9,0.7-1.3c0.2-0.3,0.4-0.6,0.6-0.9c0.1-0.1,0.2-0.3,0.4-0.4l0,0c1.7-1.8,4.1-2.5,6.4-2c0.1,0,0.2,0.1,0.4,0.1
			c0.1,0,0.2,0,0.3,0.1c0.1,0,0.2,0.1,0.3,0.1c0.1,0,0.2,0.1,0.4,0.1c0.5,0.2,0.9,0.4,1.3,0.7c0.1,0.1,0.3,0.2,0.4,0.3
			c0.3,0.2,0.6,0.5,0.9,0.8c0.2,0.2,0.3,0.4,0.5,0.6s0.3,0.4,0.4,0.7c0.1,0.2,0.3,0.5,0.4,0.7c0.1,0.1,0.1,0.3,0.1,0.4
			c0.1,0.1,0.1,0.3,0.1,0.4s0.1,0.2,0.1,0.3c0,0.1,0.1,0.2,0.1,0.3c0,0.2,0.1,0.4,0.1,0.6c0,0.1,0,0.3,0,0.4c0,0.2,0,0.3,0,0.5
			s0,0.5,0,0.7s0,0.5-0.1,0.7l-4,19.4l-4.3,21.2l-0.1,0.2l-0.1,0.4c0,0.2-0.1,0.4-0.1,0.6l0,0c0,0.1,0,0.2,0,0.3c0,0.2,0,0.4,0,0.6
			c0,1.6,0.4,3.1,1.1,4.4c0.3,0.4,0.5,0.8,0.8,1.2c0.2,0.2,0.3,0.4,0.5,0.6s0.4,0.4,0.5,0.5c0.8,0.7,1.6,1.2,2.6,1.6
			c0.5,0.2,1,0.3,1.5,0.4c0.1,0,0.2,0,0.3,0.1h0.1c0.1,0,0.3,0,0.4,0l0,0c0.1,0,0.1,0,0.2,0c0.3,0,0.5,0,0.8,0
			c1.4,0,2.7-0.3,3.9-0.9c0.2-0.1,0.4-0.2,0.5-0.3c0.2-0.1,0.4-0.2,0.6-0.4c0.4-0.3,0.8-0.6,1.2-0.9c0.2-0.2,0.3-0.3,0.5-0.5
			c0,0,0,0,0.1-0.1s0.3-0.3,0.4-0.4c0.1-0.1,0.1-0.1,0.1-0.2c0.1-0.2,0.3-0.4,0.4-0.5l0,0c0.1-0.2,0.2-0.4,0.3-0.6
			c0.2-0.5,0.4-0.9,0.6-1.4c0-0.1,0.1-0.3,0.1-0.4s0.1-0.3,0.1-0.4L49,29.9c0.1-0.5,0.2-1.1,0.3-1.6c0-0.2,0-0.3,0.1-0.5
			c0-0.1,0-0.2,0-0.3c0-0.1,0-0.1,0-0.2s0-0.3,0-0.4C49.7,24.1,49.4,21.4,48.8,18.8z M44.5,26.4L44.5,26.4c0,0.4,0,0.7-0.1,1
			c0,0.3-0.1,0.6-0.1,0.9c0,0.2-0.1,0.4-0.1,0.6L44,29.8l-0.5,2.4l-1.1,5.3L42,39.8l-1.1,5.3l-0.5,2.4l-1.1,5.3l-0.5,2.4l-1.1,5.3
			l-0.5,2.4l0,0l-1.1,5.3l0,0l-0.3,1.6c-0.1,0.3-0.2,0.7-0.3,0.9c0,0.1-0.1,0.2-0.2,0.3c0,0.1-0.1,0.1-0.1,0.2
			c-0.3,0.4-0.6,0.8-1.1,1c-0.7,0.4-1.5,0.7-2.3,0.6c-0.2,0-0.4,0-0.7-0.1c-0.1,0-0.2-0.1-0.3-0.1l0,0c-0.1,0-0.2-0.1-0.3-0.1
			c-0.1-0.1-0.3-0.1-0.4-0.2c-0.1,0-0.1-0.1-0.2-0.1c0,0-0.1,0-0.1-0.1c-0.1-0.1-0.3-0.2-0.4-0.3l0,0c-0.2-0.1-0.3-0.3-0.4-0.4l0,0
			c-0.4-0.4-0.6-0.9-0.8-1.5c-0.1-0.5-0.2-1-0.1-1.5l0.1-0.5l0.7-3.2l0,0l0.5-2.4l1.1-5.3l0,0l0.5-2.4l1.1-5.3l0.5-2.4l1.1-5.3
			l0.5-2.4l1.1-5.3l0.5-2.4l0.9-4.3c0.1-0.3,0.1-0.7,0.1-1c0.1-0.8,0.1-1.5,0.1-2.3c0-0.2,0-0.4-0.1-0.5c0-0.4-0.1-0.8-0.2-1.2
			c-0.1-0.3-0.1-0.6-0.2-0.9c-0.1-0.2-0.1-0.4-0.2-0.7c-0.2-0.5-0.4-1-0.6-1.4l0,0c-0.4-0.7-0.8-1.4-1.3-2l0,0
			c-0.3-0.4-0.6-0.7-0.9-1c-0.3-0.3-0.6-0.6-1-0.9c-0.9-0.7-1.8-1.2-2.8-1.6c0,0-0.1,0-0.1-0.1c-0.2-0.1-0.5-0.2-0.7-0.3l0,0
			c-0.2-0.1-0.5-0.2-0.8-0.2C27.8,13,27.6,13,27.4,13c-1-0.2-2-0.3-2.9-0.2c-0.2,0-0.5,0-0.7,0.1c-0.4,0-0.8,0.1-1.1,0.2
			c-0.3,0.1-0.5,0.1-0.8,0.2c-0.1,0-0.3,0.1-0.4,0.1c-0.2,0.1-0.4,0.1-0.6,0.2c-0.3,0.1-0.6,0.2-0.9,0.4c-0.1,0-0.1,0-0.1,0.1
			c-0.3,0.1-0.6,0.3-0.9,0.5c-0.6,0.3-1.1,0.7-1.6,1.1c-0.1,0.1-0.1,0.1-0.2,0.1c0,0,0,0-0.1,0.1L17,16l-0.1,0.1
			c-0.1,0.1-0.3,0.3-0.4,0.4s-0.3,0.3-0.4,0.4s-0.1,0.2-0.2,0.3c-0.2,0.2-0.4,0.5-0.5,0.7c-0.3,0.5-0.6,0.9-0.9,1.4
			c-0.3,0.5-0.5,1.1-0.7,1.6c-0.1,0.3-0.2,0.6-0.3,0.9s-0.1,0.5-0.2,0.7c0,0.1-0.1,0.2-0.1,0.3c0,0.1-0.1,0.2-0.1,0.3
			c-0.1,0.2-0.2,0.4-0.3,0.6c-0.2,0.3-0.4,0.5-0.6,0.8c-0.1,0.1-0.1,0.2-0.2,0.2c0,0,0,0-0.1,0c-0.2,0.2-0.5,0.4-0.8,0.5
			c-0.1,0-0.2,0.1-0.3,0.1c-0.4,0.2-0.9,0.3-1.4,0.3c-0.2,0-0.4,0-0.8-0.1l-0.3-0.1l0,0c-0.1,0-0.2-0.1-0.3-0.1
			c-0.2-0.1-0.4-0.2-0.6-0.3c-0.3-0.2-0.6-0.4-0.8-0.6C6,24.3,5.8,24.2,5.7,24c-0.1-0.1-0.1-0.2-0.2-0.3c-0.1-0.1-0.1-0.2-0.2-0.3
			c-0.3-0.5-0.4-1-0.4-1.6v-0.1v-0.1c0-0.2,0-0.5,0.1-0.7l0,0c0.2-0.9,0.4-1.8,0.8-2.7c0.2-0.7,0.5-1.4,0.8-2
			c0.1-0.2,0.2-0.3,0.3-0.5c0-0.1,0.1-0.2,0.1-0.2c0.1-0.2,0.3-0.5,0.4-0.7c0.2-0.3,0.3-0.5,0.5-0.8c0.5-0.8,1.1-1.5,1.7-2.2
			c0.2-0.2,0.4-0.5,0.6-0.7c0.2-0.2,0.4-0.5,0.7-0.7c0.2-0.2,0.4-0.4,0.7-0.6c0.1-0.1,0.2-0.1,0.2-0.2c2-1.7,4.3-3,6.8-3.7h0.1
			c0.1,0,0.2-0.1,0.3-0.1l2.9-0.6C22.3,5.1,22.8,5,23.2,5c0.2,0,0.5,0,0.7,0c0.3,0,0.6,0,0.9,0l0,0c0.3,0,0.6,0,0.9,0
			c0.6,0,1.3,0.1,1.9,0.2c0.3,0.1,0.7,0.1,1,0.2s0.7,0.1,1,0.2c0.1,0,0.3,0.1,0.4,0.1l0,0c0.5,0.1,1.1,0.3,1.6,0.5
			c0.1,0.1,0.3,0.1,0.4,0.2c0.8,0.3,1.6,0.7,2.4,1.2l0,0c0.6,0.3,1.2,0.7,1.8,1.1C36.4,8.8,36.7,9,37,9.3c0.1,0.1,0.2,0.2,0.3,0.3
			s0.2,0.2,0.3,0.3c0.2,0.2,0.4,0.4,0.6,0.6l0,0c0.2,0.2,0.5,0.4,0.7,0.7c0,0,0,0,0.1,0.1l0,0c0.8,0.9,1.6,1.9,2.3,2.9
			c0.3,0.5,0.6,1,0.9,1.5c0.2,0.3,0.3,0.7,0.5,1s0.3,0.7,0.5,1.1c0.1,0.3,0.2,0.6,0.3,0.9l0,0c0.2,0.5,0.3,1,0.5,1.6
			c0.2,0.8,0.4,1.5,0.4,2.3c0.1,0.7,0.1,1.5,0.1,2.3C44.6,25.2,44.6,25.8,44.5,26.4z"/>
		<path class="st0" d="M44.5,26.4L44.5,26.4c0,0.4,0,0.7-0.1,1c0,0.3-0.1,0.6-0.1,0.9c0,0.2-0.1,0.4-0.1,0.6L44,29.8l-0.5,2.4
			l-1.1,5.3L42,39.8l-1.1,5.3l-0.5,2.4l-1.1,5.3l-0.5,2.4l-1.1,5.3l-0.5,2.4l0,0l-1.1,5.3l0,0l-0.3,1.6c-0.1,0.3-0.2,0.7-0.3,0.9
			c-0.1,0.1-0.1,0.2-0.2,0.3c0,0.1-0.1,0.1-0.1,0.2c-0.3,0.4-0.6,0.8-1.1,1c-0.7,0.4-1.5,0.7-2.3,0.6c-0.2,0-0.4,0-0.7-0.1
			c-0.1,0-0.2-0.1-0.3-0.1l0,0c-0.1,0-0.2-0.1-0.3-0.1c-0.1-0.1-0.3-0.1-0.4-0.2c-0.1,0-0.1-0.1-0.2-0.1c0,0-0.1,0-0.1-0.1
			c-0.1-0.1-0.3-0.2-0.4-0.3l0,0c-0.2-0.1-0.3-0.3-0.4-0.4l0,0c-0.4-0.4-0.6-0.9-0.8-1.5c-0.1-0.5-0.2-1-0.1-1.5l0.1-0.5l0.7-3.2
			l0,0l0.5-2.4l1.1-5.3l0,0l0.5-2.4l1.1-5.3l0.5-2.4l1.1-5.3l0.5-2.4l1.1-5.3l0.5-2.4l0.9-4.3c0.1-0.3,0.1-0.7,0.1-1
			c0.1-0.8,0.1-1.5,0.1-2.3c0-0.2,0-0.4-0.1-0.5c0-0.4-0.1-0.8-0.2-1.2c-0.1-0.3-0.1-0.6-0.2-0.9c-0.1-0.2-0.1-0.4-0.2-0.7
			c-0.2-0.5-0.4-1-0.6-1.4l0,0c-0.4-0.7-0.8-1.4-1.3-2l0,0c-0.3-0.4-0.6-0.7-0.9-1c-0.3-0.3-0.6-0.6-1-0.9c-0.9-0.7-1.8-1.2-2.8-1.6
			c0,0-0.1,0-0.1-0.1c-0.2-0.1-0.5-0.2-0.7-0.3l0,0c-0.2-0.1-0.5-0.2-0.8-0.2C27.8,13,27.6,13,27.4,13c-1-0.2-2-0.3-2.9-0.2
			c-0.2,0-0.5,0-0.7,0.1c-0.4,0-0.8,0.1-1.1,0.2c-0.3,0.1-0.5,0.1-0.8,0.2c-0.1,0-0.3,0.1-0.4,0.1c-0.2,0.1-0.4,0.1-0.6,0.2
			c-0.3,0.1-0.6,0.2-0.9,0.4c-0.1,0-0.1,0-0.1,0.1c-0.3,0.1-0.6,0.3-0.9,0.5c-0.6,0.3-1.1,0.7-1.6,1.1c-0.1,0.1-0.1,0.1-0.2,0.1
			c0,0,0,0-0.1,0.1L17,16l-0.1,0.1c-0.1,0.1-0.3,0.3-0.4,0.4s-0.3,0.3-0.4,0.4s-0.1,0.2-0.2,0.3c-0.2,0.2-0.4,0.5-0.5,0.7
			c-0.3,0.5-0.6,0.9-0.9,1.4c-0.3,0.5-0.5,1.1-0.7,1.6c-0.1,0.3-0.2,0.6-0.3,0.9s-0.1,0.5-0.2,0.7c0,0.1-0.1,0.2-0.1,0.3
			c0,0.1-0.1,0.2-0.1,0.3c-0.1,0.2-0.2,0.4-0.3,0.6c-0.2,0.3-0.4,0.5-0.6,0.8c-0.1,0.1-0.1,0.2-0.2,0.2c0,0,0,0-0.1,0
			c-0.2,0.2-0.5,0.4-0.8,0.5c-0.1,0-0.2,0.1-0.3,0.1c-0.4,0.2-0.9,0.3-1.4,0.3c-0.2,0-0.4,0-0.8-0.1l-0.3-0.1l0,0
			c-0.1,0-0.2-0.1-0.3-0.1c-0.2-0.1-0.4-0.2-0.6-0.3c-0.3-0.2-0.6-0.4-0.8-0.6C6,24.3,5.8,24.2,5.7,24c-0.1-0.1-0.1-0.2-0.2-0.3
			c-0.1-0.1-0.1-0.2-0.2-0.3c-0.3-0.5-0.4-1-0.4-1.6v-0.1v-0.1L5,20.9l0,0c0.2-0.9,0.4-1.8,0.8-2.7c0.2-0.7,0.5-1.4,0.8-2
			c0.1-0.2,0.2-0.3,0.3-0.5c0-0.1,0.1-0.2,0.1-0.2c0.1-0.2,0.3-0.5,0.4-0.7c0.2-0.3,0.3-0.5,0.5-0.8c0.5-0.8,1.1-1.5,1.7-2.2
			c0.2-0.2,0.4-0.5,0.6-0.7c0.2-0.2,0.4-0.4,0.7-0.7c0.2-0.2,0.4-0.4,0.7-0.6c0.1-0.1,0.2-0.1,0.2-0.2c2-1.7,4.3-3,6.8-3.7h0.1
			c0.1,0,0.2-0.1,0.3-0.1l2.9-0.6C22.3,5.1,22.8,5,23.2,5c0.2,0,0.5,0,0.7,0c0.3,0,0.6,0,0.9,0l0,0c0.3,0,0.6,0,0.9,0
			c0.6,0,1.3,0.1,1.9,0.2c0.3,0.1,0.7,0.1,1,0.2s0.7,0.1,1,0.2c0.1,0,0.3,0.1,0.4,0.1l0,0c0.5,0.1,1.1,0.3,1.6,0.5
			c0.1,0.1,0.3,0.1,0.4,0.2c0.8,0.3,1.6,0.7,2.4,1.2l0,0c0.6,0.3,1.2,0.7,1.8,1.1C36.4,8.8,36.7,9,37,9.3c0.1,0.1,0.2,0.2,0.3,0.3
			s0.2,0.2,0.3,0.3c0.2,0.2,0.4,0.4,0.6,0.6l0,0c0.2,0.2,0.5,0.4,0.7,0.7c0,0,0,0,0.1,0.1l0,0c0.8,0.9,1.6,1.9,2.3,2.9
			c0.3,0.5,0.6,1,0.9,1.5c0.2,0.3,0.3,0.7,0.5,1s0.3,0.7,0.5,1.1c0.1,0.3,0.2,0.6,0.3,0.9l0,0c0.2,0.5,0.3,1,0.5,1.6
			c0.2,0.8,0.4,1.5,0.4,2.3c0.1,0.7,0.1,1.5,0.1,2.3C44.6,25.2,44.6,25.8,44.5,26.4z"/>
		<path class="st1" d="M0.4,24.2c0.8,2.6,2.7,4.7,5,5.6C3,28.8,1.2,26.7,0.4,24.2z M0.2,20c0-0.1,0-0.1,0.1-0.2
			c0.3-1.6,0.9-3.3,1.5-4.8C1.1,16.5,0.5,18.2,0.2,20z M4.4,10.3C5,9.5,5.6,8.8,6.3,8.1C5.6,8.8,5,9.5,4.4,10.3z M11.7,30.1
			c1.1-0.4,2.1-0.9,3-1.7C13.7,29.2,12.7,29.8,11.7,30.1z M17.6,23.5c0,0.2-0.1,0.5-0.2,0.7C17.5,24,17.6,23.7,17.6,23.5
			c0.1-0.3,0.2-0.7,0.3-1C17.8,22.8,17.7,23.1,17.6,23.5z M23.1,67.8l0.1,0.3c0-0.2,0-0.4,0.1-0.6l0.1-0.4L23.1,67.8z M26,17.9
			c-2.3-0.5-4.7,0.3-6.4,2l0,0C21.2,18.2,23.7,17.4,26,17.9c0.2,0.1,0.3,0.1,0.4,0.1C26.2,17.9,26.1,17.9,26,17.9z M29.6,0.5
			c-0.4-0.1-0.8-0.1-1.2-0.2C28.8,0.3,29.2,0.4,29.6,0.5c0.2,0.1,0.5,0.1,0.7,0.2C30,0.6,29.8,0.5,29.6,0.5z M31.6,26.3l-3.9,19.4
			L31.6,26.3c0.1-0.2,0.1-0.4,0.1-0.7C31.7,25.9,31.6,26.1,31.6,26.3z M30.2,77.6c-0.5-0.1-1-0.3-1.5-0.4
			C29.2,77.4,29.7,77.5,30.2,77.6c0.1,0,0.2,0,0.3,0.1C30.4,77.6,30.3,77.6,30.2,77.6z M36.5,76.6c0.2-0.1,0.3-0.2,0.4-0.3l0.1-0.1
			C36.8,76.4,36.6,76.5,36.5,76.6z M32,77.8c-0.3,0-0.5,0-0.8,0c-0.1,0-0.1,0-0.2,0C31.3,77.8,31.7,77.8,32,77.8
			c1.4,0,2.7-0.3,3.9-0.9C34.7,77.4,33.4,77.8,32,77.8z M39,4.6c-1-0.8-2.1-1.4-3.3-2C36.8,3.2,37.9,3.9,39,4.6
			C39.6,5,40.2,5.5,40.8,6C40.2,5.5,39.6,5,39,4.6z M28.2,69.9c-0.1-0.5-0.1-1-0.1-1.6v-0.2v-0.2L28,68.4C28,68.9,28,69.4,28.2,69.9
			c0.1,0.6,0.4,1.1,0.7,1.5C28.6,70.9,28.3,70.4,28.2,69.9z M36.2,68.1L36.2,68.1l1.1-5.3L36.2,68.1z M44.6,24.6
			c0-0.8-0.1-1.5-0.1-2.3c-0.1-0.8-0.3-1.6-0.4-2.3c-0.1-0.5-0.3-1.1-0.5-1.6c0.2,0.5,0.3,1,0.5,1.6c0.2,0.8,0.3,1.5,0.5,2.3
			C44.5,23.1,44.6,23.8,44.6,24.6c0,0.6,0,1.3-0.1,1.9c0,0.3,0,0.6-0.1,0.9c0-0.3,0.1-0.6,0.1-1v-0.1C44.6,25.8,44.6,25.2,44.6,24.6
			z M44.2,28.9L44,29.8l-0.5,2.3l-1.1,5.3l-0.5,2.4l-1.1,5.3l-0.5,2.4l-1.1,5.3l-0.5,2.4l-1.1,5.3l-0.5,2.4l0,0l0.5-2.4l1.1-5.3
			l0.5-2.4l1.1-5.3l0.5-2.4l1.1-5.3l0.5-2.4l1.1-5.3l0.5-2.4L44.2,28.9c0-0.2,0.1-0.4,0.1-0.6C44.2,28.5,44.2,28.7,44.2,28.9z
			 M7.8,25.4l0.3,0.1c0.4,0.1,0.6,0.1,0.8,0.1c0.4,0,0.9-0.1,1.4-0.3C9.6,25.6,8.8,25.7,7.8,25.4z M21.8,5.1L19,5.8
			c-0.1,0-0.2,0.1-0.3,0.1L21.8,5.1c0.5,0,0.9-0.1,1.4-0.1C22.8,5,22.3,5.1,21.8,5.1z M42.2,15.5c-0.3-0.5-0.6-1-0.9-1.5
			c-0.7-1.1-1.5-2-2.3-2.9l0,0c0.8,0.9,1.6,1.9,2.3,2.9C41.6,14.5,41.9,15,42.2,15.5c0.2,0.3,0.3,0.7,0.5,1
			C42.5,16.1,42.4,15.8,42.2,15.5z M43.2,17.5c-0.1-0.4-0.3-0.7-0.5-1.1C42.9,16.8,43,17.2,43.2,17.5c0.1,0.3,0.2,0.6,0.3,0.9
			C43.4,18.1,43.3,17.8,43.2,17.5z M7.4,14.8C7.3,15,7.1,15.3,7,15.5C7.1,15.3,7.3,15,7.4,14.8c0.2-0.3,0.3-0.5,0.5-0.8
			C7.7,14.3,7.6,14.5,7.4,14.8z M5.3,23.4c-0.3-0.5-0.4-1.1-0.4-1.7v0.1C4.9,22.4,5.1,22.9,5.3,23.4c0,0.1,0.1,0.2,0.2,0.3
			C5.4,23.6,5.4,23.5,5.3,23.4z M36.2,21.4C36.1,21.2,36,21,36,20.7C36,20.9,36.1,21.1,36.2,21.4c0.1,0.3,0.2,0.6,0.2,0.9
			C36.3,22,36.3,21.7,36.2,21.4z"/>
	</g>
</g>
<g id="colors">
	<g id="red_x5F_top">
		<path class="st2" d="M37,9.3L37,9.3L33.8,10L6.9,15.7c0-0.1,0.1-0.2,0.1-0.2c0.1-0.2,0.3-0.5,0.4-0.7c0.2-0.3,0.3-0.5,0.5-0.8
			c0.5-0.8,1.1-1.5,1.7-2.2c0.2-0.2,0.4-0.5,0.6-0.7c0.2-0.2,0.4-0.4,0.7-0.7c0.2-0.2,0.4-0.4,0.7-0.6c0.1-0.1,0.2-0.1,0.2-0.2l0,0
			l16-3.4L30,5.7l0,0c0.5,0.1,1.1,0.3,1.6,0.5c0.1,0.1,0.3,0.1,0.4,0.2c0.8,0.3,1.6,0.7,2.4,1.2l0,0c0.6,0.3,1.2,0.7,1.8,1.1
			C36.4,8.8,36.7,9,37,9.3z"/>
	</g>
	<g id="right_x5F_green">
		<path class="st3" d="M42.2,15.5L42.2,15.5l-3.7,0.8l-4.6,1l0,0c-0.3-0.4-0.6-0.7-0.9-1c-0.3-0.3-0.6-0.6-1-0.9
			c-0.9-0.7-1.8-1.2-2.8-1.6c-0.1,0-0.1,0-0.1-0.1c-0.2-0.1-0.5-0.2-0.7-0.3l7.3-1.6l3.4-0.7l0,0c0.8,0.9,1.6,1.9,2.3,2.9
			C41.6,14.5,41.9,15,42.2,15.5z"/>
	</g>
	<g id="left_x5F_green">
		<path class="st3" d="M16.5,15.9L16.4,16c-0.1,0.1-0.3,0.3-0.4,0.4s-0.3,0.3-0.4,0.4c-0.1,0.1-0.1,0.2-0.2,0.3
			c-0.2,0.2-0.4,0.5-0.5,0.7c-0.3,0.5-0.6,0.9-0.9,1.4c-0.3,0.5-0.5,1.1-0.7,1.6c-0.1,0.3-0.2,0.6-0.3,0.9l0,0l-7.6,1.6l0,0
			c-0.3-0.5-0.4-1-0.4-1.6v-0.1v-0.1l0-0.6l0,0c0.2-0.9,0.4-1.8,0.8-2.7l0,0L16.5,15.9L16.5,15.9z"/>
	</g>
	<g id="red1">
		<path class="st2" d="M44.4,22.3L44.4,22.3l-4,0.9L36.6,24l0,0c0-0.2,0-0.4-0.1-0.5c0-0.4-0.1-0.8-0.2-1.2
			c-0.1-0.3-0.1-0.6-0.2-0.9C36,21.2,36,21,35.9,20.7c-0.2-0.5-0.4-1-0.6-1.4l0,0l4.1-0.9l3.8-0.8l0,0c0.1,0.3,0.2,0.6,0.3,0.9l0,0
			c0.2,0.5,0.3,1,0.5,1.6C44.2,20.8,44.3,21.5,44.4,22.3z"/>
	</g>
	<g id="green1">
		<path class="st3" d="M44.5,26.4L44.5,26.4c0,0.4,0,0.7-0.1,1c0,0.3-0.1,0.6-0.1,0.9c0,0.2-0.1,0.4-0.1,0.6L44,29.8l0,0l-4.1,0.9
			l-4.3,0.9l0,0l0.9-4.3c0.1-0.3,0.1-0.7,0.1-1l0,0l3.9-0.8l4.1-0.9l0,0C44.6,25.2,44.6,25.8,44.5,26.4z"/>
	</g>
	<g id="red2">
		<polygon class="st2" points="43.5,32.1 42.4,37.4 42.4,37.4 38.4,38.3 34,39.3 34,39.3 35.1,34 35.1,33.9 39.4,33 		"/>
	</g>
	<g id="green2">
		<polygon class="st3" points="42,39.8 40.9,45.1 40.9,45.1 37,46 32.5,46.9 32.5,46.9 33.5,41.6 33.5,41.6 38,40.7 41.9,39.8 		"/>
	</g>
	<g id="red3">
		<polygon class="st2" points="40.4,47.5 39.3,52.8 39.3,52.8 35.5,53.6 30.9,54.6 32,49.3 32,49.3 36.5,48.3 		"/>
	</g>
	<g id="green3">
		<polygon class="st3" points="38.8,55.2 37.8,60.5 37.7,60.5 34,61.3 29.3,62.3 30.4,57 30.4,57 35.1,56 		"/>
	</g>
	<g id="red4">
		<path class="st2" d="M37.3,62.8l-1.1,5.3l0,0l-3.6,0.8l-4.4,1l0,0c-0.1-0.5-0.2-1-0.1-1.5l0.1-0.5l0.7-3.2l0,0l4.8-1L37.3,62.8z"
			/>
	</g>
</g>
</svg>
