<?xml version="1.0" encoding="utf-8"?>
<!-- Generator: Adobe Illustrator 23.0.1, SVG Export Plug-In . SVG Version: 6.00 Build 0)  -->
<svg version="1.1" id="Icons" xmlns="http://www.w3.org/2000/svg" xmlns:xlink="http://www.w3.org/1999/xlink" x="0px" y="0px"
	 viewBox="0 0 67.1 64.2" style="enable-background:new 0 0 67.1 64.2;" xml:space="preserve">
<style type="text/css">
	.st0{fill:#066D00;}
	.st1{fill:none;stroke:#AFAFAF;stroke-width:4;stroke-linecap:round;stroke-linejoin:round;}
</style>
<path id="inside" class="st0" d="M64.1,27.6L50.4,41l3.3,19c0,0.3,0,0.5,0,0.8c0,1-0.5,1.9-1.6,1.9c-0.5,0-1.1-0.2-1.5-0.5l-17-9
	l-17,9c-0.5,0.3-1,0.5-1.5,0.5c-1.1,0-1.6-0.9-1.6-1.9c0-0.3,0-0.5,0.1-0.8l3.3-19l-14-13.4C2.5,27.1,2,26.4,2,25.8
	c0-1.1,1.2-1.6,2.1-1.7l19-2.8L31.7,4c0.3-0.7,1-1.6,1.9-1.6s1.5,0.8,1.9,1.6L44,21.2L63,24c0.9,0.2,2.1,0.6,2.1,1.7
	C65.1,26.4,64.6,27.1,64.1,27.6"/>
<path id="outline" class="st1" d="M64.1,27.2L50.4,40.6l3.3,19c0,0.3,0,0.5,0,0.8c0,1-0.5,1.9-1.6,1.9c-0.5,0-1.1-0.2-1.5-0.5l-17-9
	l-17,9c-0.5,0.3-1,0.5-1.5,0.5c-1.1,0-1.6-0.9-1.6-1.9c0-0.3,0-0.5,0.1-0.8l3.3-19l-14-13.4C2.5,26.7,2,26,2,25.3
	c0-1.1,1.2-1.6,2.1-1.7l19-2.8l8.5-17.3c0.3-0.7,1-1.6,1.9-1.6s1.5,0.8,1.9,1.6L44,20.8l19,2.8c0.9,0.2,2.1,0.6,2.1,1.7
	C65.1,26,64.6,26.7,64.1,27.2z"/>
</svg>
